<svg width="223" height="151" viewBox="0 0 223 151" fill="none" xmlns="http://www.w3.org/2000/svg">
<g clip-path="url(#clip0_1_12034)">
<path fill-rule="evenodd" clip-rule="evenodd" d="M132.674 -23.5014C129.5 -22.9778 126.912 -20.7904 126.912 -18.6299C126.912 -17.6009 126.304 -16.2094 125.561 -15.5389C123.849 -13.9937 123.83 -11.5374 125.517 -9.85471C126.878 -8.49685 130.878 -7.12551 133.498 -7.11945C134.929 -7.11541 135.017 -6.83979 135.017 -2.39827C135.017 1.30064 134.803 2.31886 134.025 2.31886C133.48 2.31886 133.173 1.94015 133.343 1.47652C133.513 1.01357 133.399 0.237934 133.09 -0.245909C132.634 -0.958197 131.634 -0.975044 127.862 -0.334187C125.296 0.101137 122.687 0.903725 122.063 1.44889C121.383 2.04392 120.371 2.26361 119.53 1.99743C115.855 0.833641 120.02 -0.826792 128.263 -1.48382C131.049 -1.7062 133.455 -2.00203 133.608 -2.14152C133.762 -2.28102 130.328 -2.32886 125.975 -2.248C117.077 -2.08222 117.963 -2.60583 114.664 4.43349C113.431 7.06296 112.58 7.85476 109.305 9.41546C101.531 13.1231 100.053 16.4642 103.927 21.5729C105.547 23.7077 105.939 24.8978 105.954 27.726C105.971 31.0415 104.932 34.6649 103.962 34.6649C103.719 34.6649 102.855 35.8436 102.044 37.2836C100.343 40.3039 100.216 43.4348 101.566 49.0751C103.067 55.3422 105.346 57.1097 115.607 59.9643C119.26 60.9805 120.299 62.2939 117.449 62.2939C113.416 62.2939 109.328 63.8788 105.959 66.7482C104.001 68.4154 101.525 69.9538 100.457 70.1668C99.3888 70.3797 98.3506 70.8184 98.1507 71.1412C97.9508 71.464 96.9112 71.7281 95.8406 71.7281C94.77 71.7281 93.7305 71.9923 93.5305 72.3151C93.3306 72.6379 92.3248 73.0867 91.2954 73.3131C89.0272 73.8118 82.8886 79.4798 81.3026 82.5398C80.132 84.7987 80.1611 85.9746 81.5796 93.6662C82.9947 101.337 83.5783 102.59 86.7428 104.763C88.4031 105.902 89.7614 107.279 89.7614 107.822C89.7614 108.365 88.7942 109.672 87.6121 110.726C84.6874 113.333 84.0767 118.33 85.8904 124.81C86.5881 127.304 87.4102 130.709 87.7175 132.377C88.2281 135.149 88.1275 135.529 86.5523 136.809C84.9616 138.1 84.865 138.485 85.302 141.774C86.4152 150.143 93.0658 158.102 97.5212 156.396C98.6836 155.951 98.4891 155.273 101.243 169.387C102.838 177.561 103.13 180.285 102.613 182.152C101.925 184.639 102.272 185.877 103.225 184.338C103.687 183.592 103.838 183.596 104.11 184.358C104.857 186.457 105.306 184.202 104.682 181.484C104.004 178.53 102.23 169.727 101.171 164.049C100.859 162.381 100.32 159.86 99.9724 158.445C99.1666 155.169 100.538 154.395 103.032 156.719C106.098 159.577 106.665 161.339 110.011 178.379C110.649 181.628 111.37 184.483 111.611 184.725C112.662 185.773 112.575 184.21 111.308 179.275C110.562 176.372 110.054 173.351 110.179 172.561C110.529 170.35 113.157 175.737 113.76 179.901C114.279 183.485 115.37 186.282 115.409 184.131C115.42 183.501 114.846 179.862 114.133 176.045C113.421 172.227 112.649 167.704 112.417 165.995L111.997 162.886L114.882 162.5C116.469 162.288 117.823 162.17 117.89 162.239C117.958 162.308 118.529 165.39 119.16 169.086C119.79 172.783 120.577 176.517 120.907 177.385C121.238 178.253 121.508 180.137 121.508 181.574C121.508 183.011 121.859 184.402 122.289 184.667C122.851 185.014 122.947 184.505 122.632 182.854L122.194 180.559L123.525 182.244C124.257 183.17 124.863 184.156 124.871 184.434C124.879 184.712 125.195 184.939 125.574 184.939C125.952 184.939 125.206 182.892 123.917 180.391C121.815 176.312 120.383 171.394 119.966 166.819C119.668 163.547 121.379 164.832 124.552 170.262C126.345 173.331 129.012 177.889 130.479 180.391C133.158 184.962 134.06 185.625 135.558 184.131C136.188 183.502 136.368 183.502 136.368 184.131C136.368 184.576 136.639 184.939 136.969 184.939C137.299 184.939 137.527 184.409 137.475 183.76C137.415 182.995 137.948 182.501 138.996 182.354C140.343 182.163 140.549 182.358 140.241 183.532C139.913 184.782 140.168 184.939 142.511 184.939C144.358 184.939 145.149 184.648 145.149 183.968C145.149 183.434 145.471 182.799 145.863 182.557C147.002 181.855 149.878 182.847 149.878 183.941C149.878 184.649 150.615 184.933 152.411 184.919C154.42 184.902 154.705 184.759 153.79 184.227C152.453 183.45 152.825 181.858 154.786 179.961C156.22 178.573 155.945 178.379 158.726 182.749C159.493 183.954 160.436 184.939 160.823 184.939C161.233 184.939 161.14 184.39 160.599 183.619C152.47 172.037 151.747 170.78 150.506 166.062C149.791 163.346 148.73 160.399 148.148 159.513C147.567 158.627 147.186 157.629 147.302 157.296C147.462 156.839 165.525 180.311 168.248 184.512C168.506 184.911 168.912 185.043 169.151 184.805C169.585 184.372 167.734 181.478 164.95 178.236C163.473 176.516 162.376 175.047 158.033 168.972C156.759 167.191 154.058 163.516 152.03 160.805C149.302 157.16 148.54 155.68 149.101 155.12C150.054 154.17 152.155 156.044 156.528 161.747C162.243 169.199 175.711 184.939 176.373 184.939C177.01 184.939 174.623 181.867 167.733 173.82C163.627 169.025 162.88 168.117 157.002 160.778C154.523 157.682 152.651 154.992 152.843 154.801C155.161 152.488 172.912 166.484 180.811 176.853C185.323 182.774 187.704 185.485 187.704 184.702C187.704 184.394 187.092 183.365 186.343 182.416C184.614 180.222 185.005 179.841 187.607 181.183C188.738 181.767 190.312 182.244 191.106 182.244C191.899 182.244 196.161 180.365 200.577 178.069C207.928 174.247 210.194 173.546 209.009 175.459C208.765 175.854 206.987 176.926 205.058 177.841C198.754 180.833 192.337 184.396 192.664 184.722C192.84 184.898 196.427 183.275 200.633 181.116C204.84 178.957 208.515 177.089 208.8 176.965C209.085 176.841 209.349 178.661 209.386 181.009C209.47 186.335 210.5 183.885 210.602 178.114C210.706 172.22 210.222 172.179 200.208 177.224C192.361 181.179 191.325 181.533 189.433 180.91C186.313 179.882 180.594 174.569 178.94 171.161C177.152 167.477 177.772 165.875 181.45 164.68C182.846 164.226 186.178 162.837 188.855 161.594C191.531 160.35 194.068 159.332 194.493 159.332C195.455 159.332 204.651 168.123 204.293 168.701C203.766 169.551 197.836 168.65 197.836 167.72C197.836 166.987 197.244 167.028 194.796 167.933C193.124 168.551 191.756 169.262 191.756 169.512C191.756 169.763 193.026 170.475 194.576 171.094C197.122 172.109 197.455 172.117 197.988 171.167C198.789 169.738 205.099 169.735 207.141 171.163C208.508 172.118 208.643 172.114 208.643 171.122C208.643 170.215 209.329 170.065 212.696 170.231C216.929 170.44 217.941 171.138 215.06 171.859C214.131 172.091 213.371 172.552 213.371 172.882C213.371 173.743 213.675 173.657 216.484 172.003C219.021 170.51 221.825 170.291 240.221 170.142C242.171 170.127 243.767 169.817 243.767 169.454C243.767 169.04 236.805 168.793 225.041 168.789L206.315 168.785L203.425 165.901L200.535 163.018L210.33 158.123C215.718 155.43 220.126 152.979 220.126 152.676C220.126 152.372 215.608 154.415 210.086 157.213L200.048 162.303L197.876 160.48C193.944 157.18 193.278 157.242 183.049 161.861C175.125 165.439 173.241 166.108 172.219 165.709C171.387 165.384 171.584 165.067 173.12 164.256C174.201 163.686 175.873 162.974 176.835 162.673C179.401 161.872 189.76 158.124 203.577 152.997C219.662 147.028 219.787 146.977 219.014 146.721C218.33 146.493 211.185 148.953 196.822 154.362C192.364 156.041 186.589 158.182 183.989 159.121C181.388 160.059 177.344 161.568 175.002 162.474L170.743 164.122L166.22 160.809C158.009 154.792 156.511 154.008 152.917 153.843C151.06 153.758 149.028 153.922 148.401 154.207C147.426 154.652 147.335 154.453 147.772 152.817C148.258 150.994 148.727 150.795 158.366 148.338C163.914 146.925 169.517 145.509 170.817 145.193C172.117 144.876 177.285 143.509 182.3 142.155C187.315 140.801 194.458 138.953 198.173 138.048C210.111 135.141 220.126 132.203 220.126 131.608C220.126 130.787 220.808 130.642 204.023 135.04C178.67 141.683 158.526 146.778 148.696 149.033C147.376 149.335 147.176 149.111 147.176 147.328C147.176 145.368 147.349 145.242 151.06 144.51C156.9 143.359 159.086 142.6 165.966 139.338C177.226 133.999 183.651 125.703 183.651 116.505C183.651 112.219 182.032 106.867 180.28 105.358C179.243 104.465 179.09 103.609 179.374 100.304C179.665 96.9412 179.456 95.8408 178.03 93.2019L176.342 90.0798L177.709 87.8372C179.644 84.6639 180.08 78.6738 178.604 75.5699C177.482 73.2114 177.49 73.0618 178.835 71.1776C179.6 70.1048 180.605 67.8163 181.067 66.0912C181.8 63.3586 181.76 62.7036 180.753 61.0041C180.117 59.9313 179.598 58.597 179.598 58.039C179.598 57.4804 178.342 55.4392 176.808 53.5018C174.284 50.3171 174.132 49.9161 175.212 49.313C177.416 48.0825 181.703 43.8816 182.682 41.9934C183.214 40.9643 183.651 38.4077 183.651 36.3119C183.651 33.1245 183.331 32.0981 181.699 30.0448C179.505 27.2846 174.783 24.5474 169.936 23.2245C168.151 22.738 166.947 22.0837 167.259 21.7717C167.572 21.4597 170.856 20.215 174.558 19.0054C181.085 16.8733 181.287 16.7472 181.287 14.7943C181.287 13.2586 180.842 12.5699 179.41 11.8845C177.653 11.0449 177.541 10.7376 177.651 7.08452C177.783 2.68074 177.379 1.64499 175.529 1.64499C173.921 1.64499 172.847 3.57362 172.833 6.48612C172.815 10.3124 172.179 10.7262 167.672 9.84404C165.501 9.4195 162.965 8.99294 162.036 8.89658C160.701 8.75776 159.908 7.83185 158.251 4.47325C157.098 2.13692 155.578 -0.165045 154.873 -0.642149C152.484 -2.25945 139.07 -3.8343 139.07 -2.49733C139.07 -2.18128 141.882 -1.75068 145.318 -1.5411C151.691 -1.1516 153.93 -0.667082 153.93 0.324192C153.93 1.43878 151.25 1.69014 149.74 0.717062C148.887 0.167852 145.938 -0.498613 143.188 -0.763447C138.346 -1.22977 138.198 -1.20012 138.554 0.156395C138.78 1.023 138.551 1.69957 137.952 1.92869C137.157 2.23328 137.019 1.48056 137.182 -2.23923C137.37 -6.52105 137.478 -6.78925 139.07 -6.96311C139.999 -7.06419 142.036 -7.47862 143.596 -7.88295C146.063 -8.52381 146.635 -9.04606 147.986 -11.8986L149.54 -15.1783V-15.6549C149.341 -15.9919 149.617 -15.5464 149.341 -15.9919C149.364 -16.3288 149.364 -15.9919 149.341 -16.6658C149.326 -17.1278 149.155 -16.6211 149.341 -17.729C149.544 -18.9325 149.099 -19.0242 147.007 -18.2121C146.117 -17.8664 145.825 -18.0929 145.825 -19.1273C145.825 -22.1826 138.816 -24.5142 132.674 -23.5014ZM138.733 -20.5929C138.503 -20.2223 137.439 -19.9191 136.368 -19.9191C135.298 -19.9191 134.234 -20.2223 134.004 -20.5929C133.752 -21.0006 134.686 -21.2668 136.368 -21.2668C138.051 -21.2668 138.985 -21.0006 138.733 -20.5929ZM131.302 -19.9191C131.532 -19.5484 131.398 -19.2452 131.005 -19.2452C130.611 -19.2452 130.289 -19.5484 130.289 -19.9191C130.289 -20.2897 130.423 -20.5929 130.587 -20.5929C130.751 -20.5929 131.073 -20.2897 131.302 -19.9191ZM142.448 -19.9191C142.448 -19.5484 142.144 -19.2452 141.772 -19.2452C141.401 -19.2452 141.097 -19.5484 141.097 -19.9191C141.097 -20.2897 141.401 -20.5929 141.772 -20.5929C142.144 -20.5929 142.448 -20.2897 142.448 -19.9191ZM144.034 -17.5389C143.826 -16.9951 143.386 -16.5497 143.059 -16.5497C142.731 -16.5497 142.536 -15.9007 142.625 -15.1076C142.713 -14.3144 142.406 -13.5314 141.941 -13.367C140.68 -12.9202 140.883 -16.545 142.2 -17.9972C143.435 -19.3584 144.621 -19.0619 144.034 -17.5389ZM130.83 -17.7627C131.275 -17.3179 131.64 -16.2343 131.64 -15.3549C131.64 -12.7713 129.325 -13.6985 129.065 -16.3866C128.844 -18.665 129.451 -19.138 130.83 -17.7627ZM138.901 -17.233C139.414 -17.2269 139.746 -16.2976 139.746 -14.865V-12.5064H136.031C132.345 -12.5064 132.316 -12.5219 132.316 -14.5496C132.316 -16.7869 134.234 -18.0949 136.706 -17.543C137.449 -17.3779 138.437 -17.2377 138.901 -17.233ZM130.466 -12.4121C132.2 -11.4862 140.082 -11.6041 141.917 -12.5839C142.638 -12.9687 143.737 -13.0725 144.358 -12.8144C146.515 -11.9175 141.679 -10.5468 136.243 -10.5151C130.829 -10.4834 127.208 -11.3494 127.924 -12.5051C128.455 -13.3609 128.706 -13.3515 130.466 -12.4121ZM134.342 -8.99956C134.342 -8.35399 133.24 -8.40453 130.965 -9.15321C129.504 -9.63436 129.618 -9.6977 131.809 -9.62223C133.202 -9.57438 134.342 -9.29405 134.342 -8.99956ZM139.07 -9.13704C137.731 -8.27313 134.82 -8.27313 135.355 -9.13704C135.585 -9.50767 136.743 -9.8062 137.928 -9.8008C139.568 -9.79272 139.841 -9.63436 139.07 -9.13704ZM128.938 0.808706C128.938 1.76561 126.295 2.97253 125.155 2.53653C124.113 2.13759 124.122 2.02843 125.258 1.19956C126.594 0.225132 128.938 -0.023531 128.938 0.808706ZM147 0.719755C147.831 0.942135 148.345 1.39296 148.142 1.72181C147.588 2.61604 145.657 2.40377 144.176 1.28649C142.878 0.307343 142.878 0.297235 144.176 0.306669C144.897 0.311386 146.167 0.497375 147 0.719755ZM157.92 6.81227C159.943 13.2417 159.817 15.5127 157.366 16.7769C156.283 17.3355 153.624 17.9905 151.456 18.2325C149.287 18.4744 147.058 18.9528 146.5 19.2965C145.214 20.0897 151.851 19.3942 155.619 18.341C159.806 17.1704 160.568 16.2317 160.174 12.737C159.781 9.2571 159.559 9.32988 166.972 10.495C169.663 10.9182 172.195 11.7114 172.648 12.272C173.234 12.9998 174.235 13.1824 176.194 12.9203C179.916 12.4223 180.319 13.5376 176.748 14.4507C175.158 14.857 172.489 15.6522 170.817 16.2169C162.925 18.8854 154.771 21.1726 153.126 21.18C152.126 21.184 151.116 21.4981 150.881 21.8775C150.219 22.9449 155.473 22.0035 162.374 19.8174C174.275 16.0484 180.388 14.3388 180.733 14.6832C181.603 15.5511 179.81 16.5276 174.345 18.161C171.105 19.1301 167.237 20.3316 165.751 20.8309C159.004 23.0999 155.02 23.8937 146.838 24.6006C137.831 25.3789 135.925 25.6869 136.511 26.2711C136.825 26.5852 146.885 25.6903 152.917 24.8115C154.606 24.5656 155.366 24.6545 154.944 25.048C153.894 26.0258 149.316 27.1472 144.305 27.6526C141.797 27.9053 139.746 28.377 139.746 28.7011C139.746 29.0246 140.886 29.1243 142.279 28.9215C143.672 28.7187 146.298 28.4882 148.116 28.408C151.678 28.2517 151.725 28.3029 152.871 33.4857C153.096 34.5052 153.738 35.3388 154.297 35.3388C155.182 35.3388 155.19 35.1441 154.359 33.8226C153.835 32.989 153.212 31.1992 152.975 29.8467L152.544 27.3871L157.464 24.9611C160.171 23.6268 162.824 22.5352 163.358 22.5352C166.443 22.5352 175.497 26.071 178.098 28.2921C180.696 30.5105 180.948 31.0058 180.944 33.8752C180.937 39.1482 177.938 42.4246 169.122 46.792C163.516 49.5691 157.239 51.4384 148.527 52.9257C141.609 54.1063 126.493 53.9513 119.973 52.6325C113.038 51.2302 106.089 47.8163 104.115 44.8418C101.353 40.68 102.721 35.9062 107.002 34.7707C108.342 34.4149 109.084 33.7438 109.23 32.7552C109.5 30.9108 113.58 28.7348 117.867 28.1486L120.986 27.722L120.494 30.6884C119.88 34.3839 119.711 34.6649 118.091 34.6649C117.37 34.6649 116.78 34.9682 116.78 35.3388C116.78 36.167 116.95 36.1711 119.007 35.3907C120.205 34.9365 120.856 33.9385 121.426 31.6797L122.206 28.5899L130.807 29.0232C140.33 29.5024 142.063 28.9774 132.991 28.3608C129.833 28.1465 126.794 27.9228 126.236 27.8635C125.679 27.8049 127.655 27.3581 130.627 26.8709L136.031 25.9847L129.614 26.2799C126.084 26.443 120.765 26.7563 117.793 26.9774C114.599 27.2152 111.643 27.0899 110.565 26.6714C108.193 25.7502 102.596 18.6314 102.596 16.5343C102.595 14.9729 102.643 14.9567 103.906 16.0976C104.955 17.0444 105.879 17.1906 108.514 16.8294C112.228 16.3193 112.959 16.814 113.716 20.3451C114.111 22.1868 114.472 22.5203 115.989 22.4435C117.581 22.3627 117.614 22.3175 116.273 22.0594C114.96 21.8074 114.74 21.3154 114.652 18.4447C114.596 16.6179 114.521 14.7438 114.483 14.2802C114.446 13.8172 115.252 13.3421 116.273 13.2249L118.131 13.0113L118.153 17.6051C118.17 21.3512 118.325 22.0021 118.997 21.1348C119.707 20.2164 121.417 20.1133 131.519 20.3801C137.953 20.5493 143.485 20.4219 143.812 20.0957C144.154 19.7541 139.432 19.4906 132.689 19.4744C119.173 19.4421 118.812 19.3134 118.796 14.5349C118.782 10.3879 118.108 9.43298 115.553 9.94243C113.596 10.3333 113.535 10.2753 114.061 8.52459C114.362 7.52052 114.934 5.87559 115.331 4.86949C116.036 3.08439 116.109 3.06283 118.35 3.99749C119.655 4.54198 124.43 5.15454 129.412 5.41668C137.182 5.82572 138.225 5.75294 138.603 4.77245C139.061 3.58104 141.097 3.2286 141.097 4.34049C141.097 4.71113 141.875 5.01437 142.825 5.01437C143.776 5.01437 144.387 4.74482 144.183 4.41597C143.979 4.08712 144.721 3.68481 145.832 3.52173C147.134 3.33103 147.851 3.51837 147.851 4.04938C147.851 4.9234 150.628 4.49481 153.93 3.11134C154.859 2.72252 155.819 2.3849 156.063 2.36132C156.307 2.33841 157.143 4.34117 157.92 6.81227ZM176.038 3.39976C175.813 3.62349 175.23 3.64775 174.743 3.453C174.204 3.23803 174.365 3.07832 175.151 3.04598C175.863 3.017 176.262 3.17604 176.038 3.39976ZM176.762 8.55222C176.588 11.5732 176.361 12.0901 175.208 12.0901C174.054 12.0901 173.827 11.5732 173.653 8.55222C173.455 5.13769 173.509 5.01437 175.208 5.01437C176.906 5.01437 176.96 5.13769 176.762 8.55222ZM112.491 12.2585L112.215 15.4595L108.68 15.6866C102.6 16.0767 102.578 13.8698 108.63 10.7235C110.326 9.84202 111.951 9.10615 112.24 9.0893C112.53 9.07178 112.643 10.4984 112.491 12.2585ZM116.915 11.8879C116.285 12.5166 115.924 12.5166 115.294 11.8879C114.664 11.2592 114.843 11.0793 116.104 11.0793C117.366 11.0793 117.545 11.2592 116.915 11.8879ZM108.194 23.0359C109.847 24.6855 110.628 24.9113 115.44 25.1289C118.406 25.2637 120.833 25.1141 120.832 24.7967C120.832 24.4793 118.543 24.1889 115.747 24.1504C111.534 24.0925 110.396 23.8324 109.118 22.6342C106.849 20.5081 106.021 20.8687 108.194 23.0359ZM135.912 22.8094C132.133 23.2144 128.791 23.7967 128.486 24.1033C128.182 24.4099 129.907 24.4678 132.32 24.2313C142.621 23.2225 149.559 22.3923 149.822 22.1362C150.286 21.6827 143.237 22.0237 135.912 22.8094ZM122.859 24.4213C122.859 24.7179 123.923 24.8365 125.223 24.6848C126.524 24.5332 127.587 24.2906 127.587 24.1464C127.587 24.0015 126.524 23.8829 125.223 23.8829C123.923 23.8829 122.859 24.1255 122.859 24.4213ZM110.532 27.6768C112.348 28.1627 112.506 29.0394 110.87 29.5576C109.157 30.0994 108.411 29.7706 108.312 28.4316C108.216 27.1303 108.335 27.0899 110.532 27.6768ZM168.791 28.5866C168.233 28.9067 165.116 29.5442 161.864 30.0037C158.611 30.464 156.074 30.9627 156.224 31.1123C156.919 31.8064 169.121 29.9074 170.073 28.9572C171.184 27.8494 170.447 27.6364 168.791 28.5866ZM173.191 30.7598C174.079 34.2903 170.986 38.2453 165.582 40.4886C162.226 41.8815 161.691 43.0271 164.907 41.9374C168.062 40.8673 172.55 37.5276 173.435 35.5895C174.388 33.5032 174.419 30.1661 173.492 29.594C173.043 29.3177 172.935 29.7396 173.191 30.7598ZM107.989 32.8118C107.994 33.4607 107.695 33.9911 107.323 33.9911C106.952 33.9911 106.653 33.0052 106.658 31.801C106.666 30.1392 106.826 29.8548 107.323 30.6217C107.684 31.1776 107.983 32.1628 107.989 32.8118ZM181.906 38.8322C180.072 42.395 174.546 46.8513 169.199 49.0805C164.444 51.0624 165.001 50.1277 169.963 47.7968C176.271 44.8344 180.646 40.5492 181.791 36.2122C182.491 33.5557 182.674 33.3118 182.847 34.799C182.963 35.7883 182.538 37.603 181.906 38.8322ZM148.78 37.6394C146.876 38.1004 143.228 38.5498 140.674 38.6388C138.121 38.7277 135.811 39.0141 135.542 39.2749C134.829 39.9684 144.165 39.4933 148.715 38.6044C150.862 38.1846 152.78 37.5822 152.977 37.2641C153.414 36.5592 153.141 36.5835 148.78 37.6394ZM158.434 37.136C158.186 37.3827 157.983 39.5054 157.983 41.8532C157.983 45.9989 158.033 46.1208 159.738 46.1208C161.492 46.1208 161.493 46.1181 161.012 41.9091C160.748 39.593 160.396 37.4696 160.23 37.192C159.858 36.5659 159.031 36.5403 158.434 37.136ZM120.157 37.9124C120.157 38.2661 121.553 38.7641 123.259 39.0189C126.867 39.5593 128.074 39.0512 124.765 38.3854C123.531 38.1368 121.99 37.7843 121.339 37.6017C120.689 37.4191 120.157 37.5586 120.157 37.9124ZM129.107 39.1725C129.758 39.3423 130.821 39.3423 131.471 39.1725C132.122 39.0034 131.589 38.8645 130.289 38.8645C128.989 38.8645 128.457 39.0034 129.107 39.1725ZM160.245 43.7407C160.455 44.2845 160.335 44.9092 159.98 45.1282C159.625 45.3472 159.334 44.9018 159.334 44.139C159.334 42.5116 159.71 42.3478 160.245 43.7407ZM178.59 45.4382C177.724 46.8358 172.314 50.0394 167.777 51.8407C160.476 54.7397 154.971 56.1373 146.505 57.2405C142.23 57.7971 137.593 58.4076 136.2 58.5963C134.807 58.7857 133.667 58.6576 133.667 58.312C133.667 57.9669 135.718 57.4817 138.226 57.2344C144.657 56.601 157.551 54.3428 159.804 53.4567C161.519 52.7814 161.574 52.6649 160.382 52.2241C159.242 51.8023 159.368 51.6318 161.327 50.9505C164.393 49.8844 165.448 49.999 163.387 51.1749C161.777 52.0927 161.766 52.1392 163.155 52.1621C164.945 52.1911 172.579 48.8285 176.023 46.4935C178.806 44.6066 179.208 44.4415 178.59 45.4382ZM110.148 50.6924C116.635 53.7336 121.728 54.4823 136.143 54.514C143.635 54.5308 149.706 54.6029 149.634 54.675C149.511 54.7984 140.662 55.9702 134.68 56.6556C133.194 56.826 130.191 57.2439 128.006 57.5848C125.501 57.975 123.584 57.9635 122.815 57.5532C122.145 57.1953 120.588 56.9029 119.356 56.9029C116.628 56.9029 108.25 54.58 106.877 53.4432C105.769 52.5267 104.382 50.0064 103.606 47.503L103.094 45.8533L105.163 47.5892C106.299 48.5441 108.543 49.9404 110.148 50.6924ZM175.004 52.6911C176.57 54.3603 178.923 58.2857 178.923 59.2277C178.923 59.4319 178.013 59.5984 176.902 59.5984C175.472 59.5984 174.335 58.9717 173.018 57.4575C171.993 56.2795 170.629 54.7701 169.987 54.1022C168.876 52.9465 168.908 52.8394 170.662 51.8899C173.093 50.5738 173.003 50.5576 175.004 52.6911ZM155.619 53.5335C154.505 53.8165 152.833 54.0625 151.904 54.08C150.372 54.1096 150.34 54.0591 151.566 53.5335C152.309 53.2147 153.981 52.9688 155.281 52.987L157.645 53.0193L155.619 53.5335ZM170.516 56.3577C172.866 58.9535 172.974 59.2399 171.847 59.8956C171.172 60.2884 169.078 61.6187 167.194 62.8532L163.767 65.0965L159.017 64.1855L154.268 63.2744V60.3255V57.3766L160.01 55.5026C163.167 54.4722 166.248 53.6069 166.855 53.5813C167.461 53.5551 169.109 54.8044 170.516 56.3577ZM111.869 57.3099C111.644 57.5336 111.061 57.5579 110.574 57.3631C110.035 57.1482 110.196 56.9885 110.982 56.9561C111.694 56.9271 112.093 57.0862 111.869 57.3099ZM124.548 59.655C121.164 60.1516 117 59.8214 116.497 59.0168C116.35 58.7803 118.86 58.7163 122.077 58.8733C127.662 59.1462 127.774 59.1812 124.548 59.655ZM131.457 58.6576C131.233 58.8814 130.65 58.9056 130.163 58.7109C129.624 58.4959 129.784 58.3362 130.571 58.3039C131.283 58.2749 131.681 58.4339 131.457 58.6576ZM148.24 58.8416C147.502 60.0337 141.68 60.9441 135.225 60.8774C130.41 60.8269 129.217 60.6624 130.857 60.2756C132.098 59.9832 134.378 59.8484 135.923 59.9771C137.468 60.1058 140.556 59.8005 142.785 59.2999C147.817 58.1684 148.703 58.0943 148.24 58.8416ZM151.959 59.4946C150.598 62.0331 141.804 64.2582 134.58 63.8923C130.012 63.6612 124.377 62.4341 123.83 61.5526C123.337 60.7548 124.765 60.7864 131.46 61.7197C137.898 62.6173 145.008 61.7669 149.098 59.6112C152.223 57.9642 152.793 57.9413 151.959 59.4946ZM178.999 61.3228C180.119 61.9003 180.917 62.7339 180.772 63.176C180.627 63.6174 178.132 66.0325 175.226 68.5434C167.427 75.2835 158.241 79.2392 145.149 81.4953C138.894 82.5735 137.571 82.926 131.978 85.0062C128.881 86.1585 120.211 88.5353 119.02 88.5589C118.581 88.5676 118.046 88.0225 117.832 87.3473C117.616 86.672 116.161 85.4018 114.597 84.5251L111.752 82.93L114.098 81.9589C117.823 80.4158 124.776 80.1435 127.841 81.4205C130.982 82.7299 133.422 82.9158 131.302 81.684C127.16 79.2776 117.228 79.1583 112.604 81.4596C110.692 82.4111 110.354 82.3545 106.587 80.4575C104.391 79.3524 102.595 78.1785 102.595 77.8503C102.595 77.5215 103.712 76.9898 105.076 76.6677C106.441 76.3456 107.663 75.768 107.791 75.3839C108.071 74.5456 103.27 71.7396 101.49 71.7012C100.56 71.681 100.761 71.3899 102.258 70.588C103.372 69.9902 105.5 68.5191 106.986 67.3183C109.806 65.0399 114.964 62.9678 117.817 62.9678C119.216 62.9678 119.482 63.2899 119.482 64.9894C119.482 66.2482 119.134 67.011 118.56 67.011C118.053 67.011 116.837 67.6397 115.858 68.408C113.619 70.1641 113.507 72.9802 115.598 74.9392C121.273 80.2567 144.745 77.8058 159.356 70.3689C160.804 69.6324 163.807 67.4106 166.029 65.4321C171.511 60.5526 175.225 59.376 178.999 61.3228ZM150.923 63.1915C143.986 68.2793 126.535 68.1364 121.833 62.9536C120.666 61.6665 121.247 61.0418 122.555 62.1766C124.356 63.7393 129.769 64.6497 137.044 64.6147C143.903 64.5817 145.246 64.3768 148.527 62.8586C152.768 60.8963 153.847 61.0459 150.923 63.1915ZM124.036 65.6518C128.01 67.7186 132.834 68.3621 139.855 67.7637C144.137 67.3992 147.076 66.759 149.006 65.7711C150.571 64.9705 152.051 64.3155 152.298 64.3155C153.322 64.3155 150.784 66.5386 148.234 67.8763C145.94 69.0791 144.116 69.348 137.162 69.5084C129.892 69.6762 128.413 69.5185 125.484 68.2611C123.639 67.4699 121.827 66.2583 121.458 65.5689C120.613 63.9954 120.866 64.0035 124.036 65.6518ZM161.232 65.7589C162.091 66.0757 162.603 66.6404 162.372 67.0144C161.583 68.2867 157.899 69.7881 156.081 69.5785C154.528 69.3992 154.238 69.0158 154.062 66.9018L153.856 64.4341L156.764 64.8088C158.364 65.0143 160.374 65.4422 161.232 65.7589ZM179.183 68.5272C172.56 81.4124 161.279 89.1088 141.909 93.9566C138.826 94.7282 134.787 95.9554 132.934 96.6845C131.08 97.413 129.288 98.0093 128.952 98.0093C128.615 98.0093 128.247 96.7229 128.132 95.1514C127.909 92.0691 126.977 91.4438 123.795 92.2403C120.689 93.0186 120.143 99.3571 123.183 99.3571C124.751 99.3571 124.406 100.497 122.702 100.941C120.589 101.493 120.267 100.943 119.805 95.9816C119.58 93.5759 119.243 91.0772 119.056 90.4282C118.818 89.6034 119.096 89.2489 119.983 89.2489C122.179 89.2489 132.547 86.4429 135.084 85.1619C137.211 84.0877 147.767 81.7911 151.566 81.5762C152.309 81.5337 153.069 81.3397 153.255 81.1442C153.441 80.9488 155.416 80.2345 157.645 79.5566C163.513 77.7735 170.036 74.1912 174.96 70.0462C177.325 68.0562 179.496 66.4072 179.784 66.3823C180.072 66.3574 179.802 67.323 179.183 68.5272ZM152.58 67.6566C152.58 69.191 146.648 71.6756 141.097 72.4667C136.216 73.1615 134.569 73.1237 130.116 72.212C125.156 71.1965 119.64 68.4187 121.414 67.8284C121.862 67.6795 122.599 67.8527 123.051 68.2139C124.633 69.4774 131.546 71.0543 135.504 71.0543C140.76 71.0543 146.904 69.8864 149.862 68.3264C152.713 66.8217 152.58 66.8547 152.58 67.6566ZM119.482 70.3568C119.482 72.4088 119.142 73.21 118.015 73.8111C116.8 74.4601 116.396 74.3846 115.651 73.369C114.404 71.6675 114.502 71.2221 116.541 69.3372C118.986 67.0764 119.482 67.2482 119.482 70.3568ZM151.035 72.0017C144.625 77.1131 125.849 76.7142 121.508 71.3744C120.576 70.2274 120.602 70.1722 121.846 70.6776C129.727 73.8819 129.804 73.896 137.382 73.6103C143.534 73.3778 145.451 73.0348 148.527 71.6163C152.771 69.6593 153.779 69.8143 151.035 72.0017ZM103.63 73.3785C106.153 74.4304 106.61 75.3833 104.904 76.0362C102.849 76.8233 100.03 76.4345 98.4486 75.1461L96.8538 73.8461L98.5425 73.1669C100.814 72.2531 100.942 72.2578 103.63 73.3785ZM124.492 74.6966C126.172 75.5874 127.175 76.4574 126.723 76.6292C125.522 77.0848 123.387 76.1407 121.91 74.5032C120.257 72.6696 120.738 72.7053 124.492 74.6966ZM96.7214 76.3509C98.6519 77.4116 103.666 80.0229 107.864 82.1537C112.096 84.3027 115.967 86.7455 116.552 87.6377C117.534 89.1317 117.511 89.3298 116.228 90.4269C112.166 93.9021 110.854 97.8018 111.81 103.569C112.52 107.855 113.346 106.358 112.939 101.52C112.572 97.1427 112.652 96.8071 114.797 93.7707C116.031 92.0253 117.251 90.5967 117.507 90.5967C117.765 90.5967 118.169 92.3407 118.406 94.4715C118.642 96.6023 119.005 99.7486 119.21 101.462L119.585 104.578L116.662 105.929C115.056 106.673 113.214 107.458 112.57 107.674C111.815 107.927 111.551 108.461 111.826 109.177C112.217 110.192 112.305 110.194 112.862 109.202C113.488 108.086 116.104 107.67 116.104 108.687C116.104 109.703 113.554 111.593 110.914 112.532C107.674 113.685 102.045 113.75 100.105 112.656C97.6509 111.272 91.5798 106.956 89.4237 105.062L87.3973 103.282L89.7614 104.675C95.7994 108.233 96.2135 108.206 95.9487 104.281C95.8048 102.15 95.9163 101.95 96.8254 102.703C97.6948 103.423 97.867 103.375 97.867 102.409C97.867 101.773 97.2591 101.094 96.5161 100.9C95.7731 100.706 95.1651 100.013 95.1651 99.3611C95.1651 98.1967 94.1438 97.0686 91.8304 95.6771C91.19 95.2923 89.679 94.3293 88.4727 93.5375C87.2663 92.7457 85.731 92.241 85.0602 92.4162C83.2405 92.8906 81.6559 90.1418 81.6559 86.5123C81.6559 83.0216 83.3121 80.405 87.9208 76.6138C91.1819 73.9311 92.2566 73.8994 96.7214 76.3509ZM177.892 76.4116C181.385 83.151 174.373 94.1076 162.805 99.9858C157.72 102.57 152.271 103.96 144.015 104.781C135.042 105.673 121.47 104.987 121.016 103.618C120.871 103.182 122.074 102.241 123.69 101.529C126.128 100.453 128.248 100.23 136.181 100.215C149.545 100.191 156.616 98.3827 165.215 92.7915C169.151 90.2315 172.748 85.0992 173.321 81.2237C173.606 79.2978 176.024 74.4493 176.71 74.4284C176.794 74.4257 177.325 75.3186 177.892 76.4116ZM172.168 82.0445C172.168 82.9004 171.784 84.1234 171.316 84.7629C170.568 85.7825 170.302 85.8088 169.157 84.9732C167.892 84.05 167.913 83.9657 169.84 82.2757C172.275 80.1408 172.168 80.1516 172.168 82.0445ZM168.493 86.1774C169.786 87.1363 169.785 87.1687 168.397 88.573C167.147 89.8386 166.771 89.9026 165.02 89.1492C162.22 87.9457 162.219 87.943 164.073 86.5224C166.102 84.9671 166.788 84.9139 168.493 86.1774ZM163.153 89.5859C166.219 90.8635 165.629 91.7227 159.576 94.7902C154.786 97.2182 153.924 96.95 154.475 93.2046C154.719 91.5469 155.343 90.8716 157.564 89.8655C160.927 88.3419 160.251 88.3763 163.153 89.5859ZM177.324 93.6716C178.946 96.1414 178.606 101.39 176.565 105.408C175.605 107.299 172.934 110.452 170.194 112.93C165.993 116.729 165.011 117.286 161.223 118.016C158.884 118.468 152.715 118.993 147.514 119.185L138.057 119.532L143.586 118.613C149.679 117.6 151.698 117.013 149.371 116.931C147.926 116.881 147.851 116.613 147.851 111.47C147.851 106.194 147.897 106.045 149.709 105.348C153.55 103.871 158.145 103.869 162.335 105.345C167.444 107.145 168.015 107.715 166.441 109.448C164.926 111.12 158.61 114.324 154.369 115.573C150.732 116.645 150.105 117.662 153.562 116.885C165.586 114.179 176.884 102.26 173.465 95.8873C172.893 94.8212 172.989 94.2491 173.907 93.2363C175.448 91.5381 175.966 91.6041 177.324 93.6716ZM84.249 95.0086C84.6806 95.9527 85.0332 97.4797 85.0332 98.4015C85.0332 99.3241 85.5513 100.867 86.1842 101.831C87.3257 103.569 87.3237 103.576 85.8627 102.666C84.8535 102.037 84.149 100.578 83.6235 98.0255C83.202 95.9783 82.7204 94.0752 82.5543 93.7976C82.3881 93.52 82.5245 93.2922 82.8582 93.2922C83.1926 93.2922 83.818 94.0645 84.249 95.0086ZM89.6074 95.4823C91.3278 96.6865 93.0185 97.8665 93.3644 98.1044C94.0236 98.5572 95.3293 105.483 94.8463 105.964C94.6923 106.118 93.1665 105.301 91.4548 104.148C89.7432 102.995 88.0721 102.053 87.7411 102.053C87.4102 102.053 86.9995 101.825 86.8293 101.547C86.2666 100.63 85.5432 93.2922 86.016 93.2922C86.27 93.2922 87.8864 94.2781 89.6074 95.4823ZM152.58 93.9378C152.58 96.4823 139.711 99.9029 134.345 98.7843C131.063 98.1003 132.395 97.5861 138.859 97.0416C143.626 96.6407 150.609 94.8084 151.764 93.6561C152.305 93.117 152.58 93.212 152.58 93.9378ZM147.668 94.3731C147.444 94.5968 146.861 94.6211 146.374 94.4263C145.835 94.2114 145.995 94.0517 146.782 94.0193C147.494 93.9903 147.892 94.1494 147.668 94.3731ZM125.561 95.611C125.561 95.7748 125.257 96.0955 124.886 96.3246C124.514 96.5538 124.21 96.4197 124.21 96.0275C124.21 95.6353 124.514 95.3138 124.886 95.3138C125.257 95.3138 125.561 95.4473 125.561 95.611ZM123.404 97.6899C123.196 97.8975 122.819 97.5235 122.565 96.859C122.199 95.8988 122.276 95.8213 122.943 96.4817C123.405 96.9392 123.612 97.483 123.404 97.6899ZM152.269 97.2903C152.025 97.6859 151.501 98.0093 151.106 98.0093C150.658 98.0093 150.709 97.6225 151.242 96.9823C152.169 95.8684 152.996 96.1171 152.269 97.2903ZM172.716 98.909C172.979 102.022 171.636 102.692 168.308 101.108C165.705 99.8699 165.699 99.9009 168.928 97.6266C171.775 95.6211 172.457 95.8516 172.716 98.909ZM167.692 102.084C171.059 103.57 171.263 103.888 169.973 105.63C169.191 106.685 168.755 106.624 164.089 104.808L159.048 102.846L161.387 101.831C164.429 100.509 164.091 100.495 167.692 102.084ZM121.197 106.138C121.441 106.533 121.155 107.39 120.561 108.045C119.195 109.551 119.168 112.41 120.511 113.522C122.562 115.219 120.81 114.998 118.543 113.273C116.326 111.587 116.253 111.399 117.004 109.305C118.127 106.176 120.234 104.584 121.197 106.138ZM127.22 106.938C127.793 108.754 128.029 114.816 127.557 115.579C127.192 116.17 126.27 115.953 124.114 114.769C120.621 112.852 120.015 110.684 122.201 107.912C123.701 106.01 126.741 105.419 127.22 106.938ZM138.395 106.77C139.147 107.255 138.745 107.425 136.835 107.434C135.29 107.44 134.429 107.175 134.68 106.77C135.207 105.918 137.074 105.918 138.395 106.77ZM180.838 107.692C180.988 108.478 180.799 108.779 180.334 108.491C179.924 108.239 178.755 108.608 177.736 109.312C173.571 112.189 173.492 112.105 176.404 107.912C177.896 105.764 180.445 105.637 180.838 107.692ZM140.754 108.168C146.798 107.118 146.5 106.933 146.5 111.742C146.5 117.633 146.148 117.85 137.357 117.353C133.466 117.133 129.98 116.767 129.61 116.539C128.925 116.116 128.648 108.632 129.294 107.988C129.489 107.793 131.209 107.917 133.117 108.263C135.395 108.676 138.017 108.643 140.754 108.168ZM89.8959 113.132C89.7837 114.144 90.0492 115.401 90.4849 115.925C91.727 117.418 96.9619 117.133 99.3402 115.443C101.223 114.106 101.435 114.084 102.484 115.13C103.299 115.943 103.632 117.556 103.696 120.998C103.744 123.609 104.132 126.093 104.558 126.518C105.633 127.591 110.187 127.487 112.334 126.342C114.477 125.198 115.085 123.227 114.096 120.633C113.113 118.05 113.728 117.662 115.769 119.576C117.959 121.629 117.905 123.62 115.598 125.768C113.117 128.078 109.235 129.233 105.241 128.85C100.915 128.436 99.8934 127.492 99.8934 123.909C99.8934 120.414 98.1656 118.842 94.5079 119.007C92.2539 119.109 92.235 119.129 94.152 119.378C95.2665 119.522 96.8484 120.156 97.6664 120.786C98.9261 121.756 99.0943 122.372 98.76 124.796C98.5425 126.371 98.0777 127.66 97.7265 127.66C97.1193 127.66 91.134 123.243 87.9039 120.411C86.0396 118.776 85.9221 117.932 87.6905 118.876C88.4092 119.259 89.5493 119.558 90.2235 119.538C90.8996 119.519 90.3126 119.033 88.9171 118.456C86.7698 117.567 86.3841 117.094 86.3841 115.343C86.3841 113.157 88.1559 110.606 89.3744 111.036C89.7729 111.176 90.0073 112.12 89.8959 113.132ZM177.572 111.415C177.572 111.746 177.072 112.207 176.463 112.441C175.536 112.796 175.494 112.697 176.208 111.839C177.181 110.67 177.572 110.548 177.572 111.415ZM182.694 113.233C183.754 118.871 181.268 125.891 176.341 131.17C173.262 134.469 165.966 138.738 158.321 141.713C155.385 142.856 145.264 144.353 142.11 144.111C132.932 143.408 125.561 141.759 125.561 140.41C125.561 139.519 127.432 139.655 131.302 140.827C138.359 142.962 149.462 142.736 156.295 140.317C173.279 134.302 180.949 126.565 180.949 115.445C180.949 110.497 181.943 109.238 182.694 113.233ZM118.053 114.467C123.067 117.833 127.854 119.387 134.902 119.938C138.335 120.205 141.012 120.556 140.851 120.717C140.69 120.877 138.712 121.439 136.456 121.964C134.199 122.489 130.901 123.583 129.125 124.395C125.342 126.126 125.226 126.203 125.691 126.666C125.886 126.861 127.532 126.372 129.349 125.58C133.086 123.952 141.948 121.615 144.431 121.603C145.335 121.598 146.779 122.254 147.639 123.06C148.884 124.227 149.202 124.311 149.202 123.469C149.202 122.888 148.746 122.239 148.189 122.025C146.019 121.195 147.357 120.356 151.2 120.139C155.531 119.893 155.513 119.871 154.269 124.028C154.146 124.44 152.12 124.979 149.766 125.225C144.941 125.731 140.023 126.724 136.031 128C131.294 129.514 128.172 128.938 123.543 125.699C121.254 124.097 119.048 122.056 118.64 121.163C118.232 120.271 116.887 118.916 115.65 118.154C113.43 116.785 112.182 114.259 113.041 112.873C113.719 111.779 114.347 111.979 118.053 114.467ZM173.221 113.867C172.5 114.411 171.588 114.845 171.195 114.833C170.801 114.819 171.239 114.375 172.168 113.845C174.356 112.597 174.889 112.608 173.221 113.867ZM175.876 115.537C174.333 117.145 173.386 117.545 171.197 117.519L168.453 117.486L172.843 115.228C175.258 113.985 177.364 113.093 177.522 113.246C177.681 113.398 176.94 114.429 175.876 115.537ZM179.974 117.741C179.726 119.604 178.978 122.19 178.31 123.489L177.095 125.85L176.625 122.543C175.917 117.583 176.018 116.843 177.634 115.126C179.733 112.898 180.504 113.759 179.974 117.741ZM130.106 117.959C129.882 118.183 129.299 118.207 128.812 118.012C128.273 117.797 128.433 117.637 129.22 117.605C129.932 117.576 130.33 117.735 130.106 117.959ZM167.031 118.746C166.249 119.387 165.421 120.445 165.191 121.1C164.7 122.496 162.757 123.325 158.478 123.965C155.936 124.346 155.407 124.247 155.529 123.417C155.75 121.917 157.319 120.255 158.572 120.193C159.177 120.164 161.192 119.595 163.049 118.93C167.576 117.308 168.859 117.249 167.031 118.746ZM133.848 118.668C133.391 118.852 132.479 118.864 131.822 118.693C131.165 118.521 131.539 118.371 132.653 118.357C133.768 118.344 134.306 118.483 133.848 118.668ZM173.103 118.987C174.025 119.406 175.148 120.638 175.599 121.725C176.774 124.554 174.737 127.237 171.191 127.536C168.023 127.803 166.42 126.459 166.211 123.363C166.089 121.55 166.445 120.739 167.852 119.635C169.904 118.025 170.756 117.92 173.103 118.987ZM93.9885 127.258C98.8586 131.092 100.022 132.375 100.61 134.552C101.002 136.005 101.227 137.482 101.11 137.834C100.88 138.521 89.8749 130.084 88.7482 128.358C87.989 127.195 87.088 122.135 87.6911 122.422C87.9046 122.523 90.7388 124.7 93.9885 127.258ZM165.103 124.336C165.348 124.731 165.39 125.212 165.196 125.405C164.63 125.97 160.204 126.861 152.242 128.013C147.124 128.754 143.511 129.705 140.633 131.07C135.865 133.33 134.599 133.458 131.161 132.025C127.614 130.546 129.081 129.364 133.124 130.443C135.852 131.171 136.384 131.116 138.13 129.932C141.33 127.759 143.214 127.177 149.915 126.291C153.424 125.828 157.966 125.07 160.01 124.607C162.053 124.144 163.935 123.733 164.191 123.691C164.448 123.65 164.859 123.94 165.103 124.336ZM121.986 126.568C121.874 126.9 120.458 127.69 118.837 128.322C117.217 128.954 116.223 129.675 116.627 129.924C117.032 130.173 118.42 129.875 119.711 129.26C123.14 127.629 123.884 128.252 124.752 133.477C125.393 137.329 125.354 138.321 124.51 139.605C123.956 140.448 123.131 141.139 122.675 141.141C122.219 141.143 120.975 141.84 119.91 142.69L117.974 144.235L119.117 151.508C119.745 155.508 120.1 158.941 119.904 159.136C119.524 159.515 119.127 157.941 118.511 153.604C115.917 135.344 114.862 129.349 114.335 129.875C113.988 130.221 116.028 145.521 117.704 155.14C118.675 160.712 118.544 160.967 114.333 161.659C110.665 162.262 107.079 160.771 105.673 158.057C105.087 156.927 103.975 155.664 103.2 155.251C102.308 154.775 101.91 154.05 102.114 153.271C102.291 152.595 102.214 150.827 101.941 149.341C101.464 146.737 101.509 146.643 103.202 146.752C104.818 146.857 104.953 146.66 104.88 144.309C104.836 142.89 104.337 141.391 103.758 140.94C103.152 140.467 102.559 138.575 102.34 136.42L101.963 132.714L102.932 136.083L103.9 139.453L103.607 135.83C103.446 133.837 102.827 131.465 102.231 130.558C101.171 128.944 101.18 128.926 102.646 129.708C104.834 130.877 110.173 130.147 114.028 128.15C116.288 126.981 117.252 126.731 117.004 127.377C116.801 127.903 116.942 128.334 117.317 128.334C117.692 128.334 118.32 127.414 118.713 126.289C119.359 124.441 119.559 124.328 120.807 125.105C121.566 125.578 122.097 126.237 121.986 126.568ZM166.426 128.311C166.426 130.409 149.195 137.191 147.007 135.953C146.167 135.478 146.438 132.355 147.345 132.056C147.809 131.903 149.262 131.652 150.573 131.498C151.884 131.344 153.986 130.686 155.245 130.037C160.716 127.214 166.426 126.332 166.426 128.311ZM137.382 129.008C137.152 129.378 136.602 129.677 136.16 129.671C135.676 129.665 135.76 129.4 136.368 129.008C137.666 128.171 137.9 128.171 137.382 129.008ZM172.125 131.023C168.389 134.22 158.746 138.815 153.058 140.11C143.934 142.187 126.236 140.338 126.236 137.308C126.236 136.573 126.576 136.428 127.419 136.805C128.069 137.096 129.512 137.286 130.627 137.226C131.741 137.166 135.886 137.131 139.837 137.149C143.788 137.167 148.94 136.834 151.285 136.41C155.701 135.611 162.693 132.768 165.975 130.436C167.552 129.316 173.147 128.233 174.152 128.853C174.315 128.954 173.403 129.93 172.125 131.023ZM126.919 129.85C126.923 130.314 127.126 131.905 127.369 133.388C127.762 135.78 127.693 135.986 126.755 135.215C125.405 134.106 124.825 129.008 126.05 129.008C126.524 129.008 126.915 129.387 126.919 129.85ZM95.9885 135.707C99.5334 138.568 100.149 139.397 100.365 141.603L100.617 144.17L98.2041 140.622C96.8768 138.671 94.7423 136.397 93.4603 135.568C92.1782 134.74 91.1252 133.683 91.1205 133.219C91.1076 131.907 91.5805 132.149 95.9885 135.707ZM130.863 133.116C133.233 133.941 133.177 135.153 130.795 134.581C129.755 134.331 129.489 134.436 129.951 134.916C130.323 135.3 131.235 135.761 131.978 135.94C132.853 136.149 132.555 136.292 131.134 136.342C129.652 136.395 128.938 136.11 128.938 135.465C128.938 134.939 128.754 134.029 128.528 133.443C128.041 132.176 128.124 132.164 130.863 133.116ZM145.701 134.23C145.516 135.829 145.148 136.112 143.022 136.288C141.665 136.401 139.538 136.224 138.293 135.894L136.031 135.295L138.395 133.839C139.732 133.015 141.878 132.381 143.336 132.38C145.751 132.377 145.901 132.495 145.701 134.23ZM96.591 140.235C99.0524 143.526 101.244 148.889 101.244 151.62C101.244 152.934 99.482 155.226 98.9977 154.543C98.8944 154.397 98.2925 152.579 97.6603 150.503C96.2972 146.029 91.8304 138.873 89.6858 137.728C88.2423 136.957 88.2275 136.872 89.3913 136.023C91.1394 134.748 93.5359 136.15 96.591 140.235ZM90.3153 139.681C91.4967 140.734 92.4633 141.97 92.4633 142.429C92.4633 142.887 91.6764 142.33 90.7145 141.189C89.7527 140.049 88.3848 139.116 87.6749 139.116C86.965 139.116 86.3841 138.813 86.3841 138.442C86.3841 137.197 88.1505 137.753 90.3153 139.681ZM89.573 142.654C92.0621 145.354 93.8088 148.835 93.8115 151.101C93.8142 153.094 93.6818 153.244 92.4842 152.605C90.7206 151.663 87.9505 146.819 87.3723 143.664C86.8414 140.767 87.5378 140.447 89.573 142.654ZM128.068 143.277C129.34 144.331 128.965 158.697 127.581 161.847C126.767 163.702 126.761 164.501 127.545 167.238C128.05 169.005 128.601 171.512 128.769 172.81L129.073 175.168L127.317 172.847C126.351 171.57 125.561 170.309 125.561 170.043C125.561 168.69 121.791 164.049 120.692 164.049C118.29 164.049 118.54 162.063 121.236 159.738C124.161 157.215 124.361 155.931 123.279 146.597L122.702 141.611L124.911 142.053C126.126 142.294 127.547 142.846 128.068 143.277ZM121.726 144.101C122.409 145.877 123.026 154.535 122.592 156.259C121.986 158.67 120.833 158.416 120.833 155.872C120.833 154.71 120.483 151.864 120.055 149.548C119.287 145.387 119.525 143.159 120.74 143.159C121.083 143.159 121.526 143.583 121.726 144.101ZM95.5272 147.371C97.2334 151.027 97.6975 154.897 96.5161 155.626C96.1067 155.878 95.8345 154.899 95.8257 153.139C95.8176 151.541 95.2097 148.913 94.4748 147.297C93.0293 144.119 92.9496 143.833 93.5076 143.833C93.7102 143.833 94.6194 145.425 95.5272 147.371ZM139.692 145.097C143.244 145.36 145.482 145.827 145.652 146.341C145.802 146.794 144.615 148.371 143.014 149.845L140.104 152.527L142.964 152.983L145.825 153.44L145.815 158.239C145.803 164.592 145.405 165.803 142.797 167.411C139.038 169.729 132.984 168.903 130.806 165.773C130.533 165.381 130.305 160.251 130.299 154.374L130.289 143.687L132.147 144.181C133.168 144.454 136.564 144.865 139.692 145.097ZM148.479 164.515C148.505 165.698 148.223 166.853 147.851 167.082C147.48 167.311 147.176 168.299 147.176 169.278C147.176 170.662 146.995 170.878 146.365 170.249C145.227 169.113 143.709 169.237 140.159 170.756C138.468 171.479 136.926 171.816 136.732 171.504C136.539 171.192 135.542 170.729 134.517 170.473C129.958 169.338 126.497 164.527 128.137 161.603C128.653 160.681 128.877 161.017 129.263 163.297C130.049 167.944 134.195 170.481 139.604 169.624C144.177 168.899 147.117 165.786 147.223 161.556C147.265 159.894 147.34 159.83 147.851 161.017C148.171 161.758 148.453 163.332 148.479 164.515ZM109.908 162.615C111.294 163.491 111.724 168.313 110.507 169.321C109.659 170.022 109.377 169.812 108.748 168.014C107.894 165.569 107.75 162.022 108.506 162.038C108.784 162.044 109.415 162.303 109.908 162.615ZM177.267 167.993C177.235 170.549 177.21 170.574 175.735 169.51C173.918 168.2 173.795 167.044 175.376 166.125C177.179 165.078 177.302 165.2 177.267 167.993ZM150.413 169.787C151.412 173.512 151.427 174.157 150.519 174.157C149.46 174.157 147.865 169.869 148.303 168.199C148.887 165.972 149.518 166.447 150.413 169.787ZM136.95 173.729C137.649 174.891 138.426 176.706 138.675 177.761C139.36 180.657 137.684 179.736 135.892 176.231C135.072 174.629 133.921 172.789 133.334 172.142C132.343 171.049 132.388 170.989 133.973 171.291C134.945 171.476 136.225 172.525 136.95 173.729ZM144.015 175.019C143.801 176.954 143.436 178.744 143.205 178.995C142.459 179.809 139.746 177.023 139.348 175.035C139.01 173.351 139.247 172.969 141.211 172.028C142.448 171.435 143.674 171.074 143.934 171.225C144.193 171.376 144.23 173.083 144.015 175.019ZM132.914 173.202C133.669 174.159 134.486 175.599 134.73 176.403C134.974 177.207 135.777 178.523 136.517 179.33C138.222 181.19 137.572 182.27 134.879 182.053C132.061 181.824 130.187 179.193 129.771 174.881C129.503 172.097 129.637 171.462 130.492 171.462C131.069 171.462 132.16 172.245 132.914 173.202ZM146.685 176.221C146.021 178.752 145.149 178.265 145.171 175.376C145.19 172.781 145.29 172.601 146.113 173.683C146.619 174.349 146.877 175.491 146.685 176.221ZM153.981 177.038C153.897 177.844 152.971 177.688 152.681 176.819C152.532 176.374 152.775 176.132 153.221 176.28C153.667 176.428 154.009 176.769 153.981 177.038ZM216.073 182.322C213.287 183.744 211.311 184.916 211.683 184.925C212.865 184.956 222.152 180.676 222.152 180.1C222.152 179.292 221.646 179.476 216.073 182.322ZM199.862 183.963L198.173 184.96L200.148 184.781C201.233 184.683 202.246 184.224 202.399 183.76C202.76 182.663 201.953 182.728 199.862 183.963Z" fill="#9FA2A4"/>
</g>
<defs>
<clipPath id="clip0_1_12034">
<rect width="223" height="151" fill="white" transform="matrix(-1 0 0 1 223 0)"/>
</clipPath>
</defs>
</svg>
