<svg width="248" height="61" viewBox="0 0 248 61" fill="none" xmlns="http://www.w3.org/2000/svg">
<path fill-rule="evenodd" clip-rule="evenodd" d="M25.7092 1.29938C18.1099 2.51719 12.3264 5.52275 7.13542 10.9508C5.63265 12.5221 3.40918 15.5654 3.40918 16.0505C3.40918 16.3312 56.3384 16.3965 56.6174 16.1161C56.9347 15.7972 54.476 12.5555 52.1128 10.1773C45.0992 3.11882 35.1755 -0.217958 25.7092 1.29938ZM103.12 8.87352V12.3H106.387H109.654V8.87352V5.44708H106.387H103.12V8.87352ZM160.604 15.2724C156.819 15.9988 153.957 18.0629 152.544 21.0853C150.712 25.002 151.613 29.9858 154.662 32.8115C156.454 34.471 158.8 35.5606 163.416 36.8755C168.946 38.4511 169.762 38.7886 170.737 39.9056C171.409 40.6746 171.583 41.1391 171.583 42.1673C171.583 45.286 168.87 47.4209 164.907 47.4209C160.974 47.4209 158.448 45.4185 157.389 41.4621L157.055 40.2143L155.725 40.387C154.994 40.4821 153.469 40.6443 152.337 40.7477C149.995 40.9612 150.052 40.8593 150.705 43.6404C151.63 47.5854 154.081 50.915 157.101 52.3302C159.488 53.4483 161.492 53.8295 164.907 53.8152C171.413 53.7878 175.39 51.7291 177.581 47.255C178.734 44.9016 179.023 41.3316 178.276 38.6964C176.894 33.828 174.265 32.0317 164.547 29.3156C161.088 28.3491 159.218 27.38 158.639 26.255C157.587 24.2103 159.141 22.0476 162.108 21.4286C166.3 20.5537 169.833 22.3157 170.354 25.5414L170.521 26.5768H173.147C174.591 26.5768 176.188 26.4934 176.696 26.3912L177.619 26.2056L177.462 24.6771C177.037 20.5388 174.063 17.0022 169.928 15.7187C167.531 14.9743 163.23 14.7684 160.604 15.2724ZM70.7355 18.8673V22.0082H75.8489H80.9623V37.5699V53.1317H84.5132H88.0642V37.5699V22.0082H93.3196H98.5751V18.8673V15.7264H84.6553H70.7355V18.8673ZM102.836 34.429V53.1317H106.387H109.938V34.429V15.7264H106.387H102.836V34.429ZM116.756 34.429V53.1317H120.307H123.858V45.2383V37.3449L126.163 37.5382C127.43 37.6445 128.822 37.9157 129.255 38.1407C130.613 38.8466 132.285 41.0546 136.107 47.1899L139.809 53.1317H143.907C146.161 53.1317 148.004 53.0791 148.004 53.0152C148.004 52.6896 141.551 41.9284 140.57 40.6186C139.945 39.7828 138.746 38.5647 137.907 37.9123L136.381 36.7259L138.223 36.126C141.599 35.0267 143.898 32.8043 144.767 29.8025C145.486 27.316 145.219 23.1746 144.213 21.2127C142.584 18.0358 140.606 16.6321 136.907 16.0288C135.901 15.8649 130.956 15.7298 125.917 15.7287L116.756 15.7264V34.429ZM193.829 18.2265C191.308 25.1716 182.243 50.3285 181.791 51.6326L181.272 53.1317H185.068H188.864L190.261 48.92L191.658 44.7083H198.718H205.778L207.254 48.8486L208.729 52.9889L212.572 53.0683L216.414 53.1474L211.45 39.9336C208.72 32.6658 205.568 24.2477 204.446 21.2267L202.405 15.7335L198.57 15.7315L194.735 15.7298L193.829 18.2265ZM220.16 34.429V53.1317H223.427H226.694L226.703 40.925C226.711 30.5694 226.771 28.796 227.098 29.2306C227.311 29.5121 230.524 35.0052 234.24 41.4372L240.994 53.1317H244.497H248V34.429V15.7264H244.736H241.472L241.398 28.1507L241.324 40.5749L234.222 28.1609L227.12 15.7467L223.64 15.7367L220.16 15.7264V34.429ZM134.966 22.3326C138.828 23.63 139.061 29.4678 135.314 31.0414C134.644 31.323 132.926 31.4309 129.122 31.4309H123.858V26.7195V22.0082H128.929C131.958 22.0082 134.389 22.1387 134.966 22.3326ZM200.962 31.2167C202.197 34.7111 203.265 37.7307 203.334 37.9268C203.432 38.2032 202.395 38.2838 198.743 38.2838C196.148 38.2838 194.025 38.1875 194.025 38.0696C194.025 37.5631 198.352 24.8636 198.524 24.8636C198.629 24.8636 199.726 27.7223 200.962 31.2167Z" fill="white"/>
<path d="M36.0791 26.9272H60.5097C61.646 43.8298 50.8511 58.0337 36.0791 60.3063V26.9272Z" fill="#60B9A7"/>
<path d="M24.5127 26.9272H0.082058C-1.05425 43.8298 9.74068 58.0337 24.5127 60.3063V26.9272Z" fill="#60B9A7"/>
</svg>
