<svg width="119" height="36" viewBox="0 0 119 36" fill="none" xmlns="http://www.w3.org/2000/svg">
<rect x="0.75" y="0.75" width="49.5" height="34.5" rx="5.25" fill="white" stroke="black" stroke-width="1.5"/>
<path fill-rule="evenodd" clip-rule="evenodd" d="M16.1251 23.7873H13.0355L10.7186 14.6885C10.6087 14.2699 10.3752 13.8999 10.0317 13.7255C9.17459 13.2873 8.23008 12.9385 7.19971 12.7626V12.4123H12.1768C12.8637 12.4123 13.3789 12.9385 13.4648 13.5496L14.6669 20.1129L17.755 12.4123H20.7587L16.1251 23.7873ZM22.4757 23.7873H19.5579L21.9606 12.4123H24.8784L22.4757 23.7873ZM28.6535 15.5635C28.7394 14.9509 29.2545 14.6006 29.8556 14.6006C30.8001 14.5126 31.829 14.6885 32.6876 15.1253L33.2028 12.6762C32.3441 12.3259 31.3996 12.15 30.5425 12.15C27.7105 12.15 25.6497 13.7256 25.6497 15.9123C25.6497 17.5759 27.1094 18.4494 28.1398 18.9756C29.2545 19.5003 29.6839 19.8506 29.598 20.3753C29.598 21.1623 28.7394 21.5126 27.8822 21.5126C26.8518 21.5126 25.8215 21.2503 24.8785 20.812L24.3633 23.2626C25.3937 23.6994 26.5084 23.8753 27.5388 23.8753C30.7142 23.9617 32.6876 22.3876 32.6876 20.025C32.6876 17.0497 28.6535 16.8753 28.6535 15.5635ZM42.9 23.7873L40.5832 12.4123H38.0946C37.5794 12.4123 37.0642 12.7626 36.8925 13.2873L32.6023 23.7873H35.606L36.2056 22.1252H39.8963L40.2397 23.7873H42.9ZM38.5233 15.4756L39.3805 19.7627H36.9778L38.5233 15.4756Z" fill="#172B85"/>
<rect x="68.25" y="0.75" width="49.5" height="34.5" rx="5.25" fill="white" stroke="black" stroke-width="1.5"/>
<path fill-rule="evenodd" clip-rule="evenodd" d="M93.2683 25.2442C91.4923 26.7412 89.1884 27.6449 86.671 27.6449C81.0537 27.6449 76.5 23.1454 76.5 17.5949C76.5 12.0445 81.0537 7.54492 86.671 7.54492C89.1885 7.54492 91.4923 8.44863 93.2683 9.94563C95.0444 8.44865 97.3482 7.54495 99.8656 7.54495C105.483 7.54495 110.037 12.0445 110.037 17.595C110.037 23.1454 105.483 27.645 99.8656 27.645C97.3482 27.645 95.0444 26.7412 93.2683 25.2442Z" fill="#ED0006"/>
<path fill-rule="evenodd" clip-rule="evenodd" d="M93.2686 25.2439C95.4553 23.4006 96.8419 20.6577 96.8419 17.5949C96.8419 14.5321 95.4553 11.7893 93.2686 9.94592C95.0447 8.44875 97.3486 7.54492 99.8662 7.54492C105.484 7.54492 110.037 12.0445 110.037 17.5949C110.037 23.1454 105.484 27.6449 99.8662 27.6449C97.3486 27.6449 95.0447 26.7411 93.2686 25.2439Z" fill="#F9A000"/>
<path fill-rule="evenodd" clip-rule="evenodd" d="M93.2686 25.2443C95.4556 23.4009 96.8423 20.658 96.8423 17.595C96.8423 14.532 95.4556 11.789 93.2686 9.94568C91.0816 11.789 89.6948 14.532 89.6948 17.595C89.6948 20.658 91.0816 23.4009 93.2686 25.2443Z" fill="#FF5E00"/>
</svg>
