<svg width="116" height="29" viewBox="0 0 116 29" fill="none" xmlns="http://www.w3.org/2000/svg">
<path fill-rule="evenodd" clip-rule="evenodd" d="M11.9286 0.73791C8.40272 1.30294 5.71933 2.69743 3.31089 5.21587C2.61365 5.94491 1.58203 7.35689 1.58203 7.58197C1.58203 7.7122 26.1396 7.74254 26.269 7.61244C26.4163 7.46446 25.2755 5.96041 24.179 4.85699C20.9249 1.58207 16.3207 0.0339105 11.9286 0.73791ZM47.845 4.25208V5.84184H49.3607H50.8764V4.25208V2.66232H49.3607H47.845V4.25208ZM74.5155 7.22096C72.7597 7.55799 71.4318 8.51569 70.7759 9.91799C69.9261 11.7352 70.3439 14.0475 71.7589 15.3586C72.59 16.1285 73.6788 16.6341 75.8202 17.2441C78.3861 17.9752 78.7645 18.1318 79.2173 18.65C79.529 19.0068 79.6095 19.2223 79.6095 19.6994C79.6095 21.1464 78.3509 22.1369 76.5122 22.1369C74.6875 22.1369 73.5152 21.2078 73.0238 19.3722L72.869 18.7932L72.2521 18.8734C71.913 18.9175 71.2054 18.9928 70.6799 19.0407C69.5934 19.1398 69.62 19.0925 69.9228 20.3829C70.3521 22.2132 71.4893 23.7581 72.8905 24.4146C73.9979 24.9334 74.9275 25.1103 76.5122 25.1037C79.5306 25.091 81.3757 24.1358 82.3925 22.0599C82.9273 20.968 83.0617 19.3116 82.7148 18.089C82.0739 15.8302 80.8541 14.9968 76.345 13.7366C74.7403 13.2882 73.8724 12.8385 73.6038 12.3165C73.1157 11.3679 73.8368 10.3645 75.2132 10.0772C77.1584 9.67132 78.7976 10.4889 79.0392 11.9855L79.1169 12.4659H80.3352C81.0053 12.4659 81.7463 12.4272 81.9819 12.3797L82.4102 12.2936L82.3373 11.5845C82.1403 9.66443 80.7603 8.02353 78.8419 7.42803C77.7294 7.08265 75.7341 6.98713 74.5155 7.22096ZM32.8194 8.88889V10.3462H35.1918H37.5643V17.5663V24.7865H39.2118H40.8594V17.5663V10.3462H43.2977H45.7361V8.88889V7.4316H39.2777H32.8194V8.88889ZM47.7132 16.1091V24.7865H49.3607H51.0082V16.1091V7.4316H49.3607H47.7132V16.1091ZM54.1715 16.1091V24.7865H55.819H57.4666V21.1242V17.4619L58.5359 17.5516C59.124 17.6009 59.7697 17.7268 59.9707 17.8312C60.6006 18.1587 61.3764 19.1831 63.1499 22.0297L64.8675 24.7865H66.7686C67.8143 24.7865 68.6699 24.7621 68.6699 24.7325C68.6699 24.5814 65.6757 19.5885 65.2207 18.9808C64.9303 18.5931 64.3743 18.0279 63.9849 17.7252L63.2771 17.1747L64.1317 16.8964C65.698 16.3863 66.7648 15.3552 67.1676 13.9625C67.5013 12.8088 67.3774 10.8874 66.9108 9.97708C66.1551 8.5031 65.2373 7.85183 63.5208 7.5719C63.0544 7.49586 60.7601 7.4332 58.4222 7.43267L54.1715 7.4316V16.1091ZM89.931 8.5916C88.7613 11.8139 84.5553 23.486 84.3459 24.091L84.1051 24.7865H85.8664H87.6275L88.2756 22.8324L88.9237 20.8783H92.1992H95.4748L96.1597 22.7993L96.8444 24.7203L98.6272 24.7571L100.41 24.7938L98.1067 18.663C96.8399 15.291 95.3774 11.3852 94.8568 9.98357L93.9102 7.43492L92.1308 7.43399L90.3515 7.4332L89.931 8.5916ZM102.148 16.1091V24.7865H103.664H105.179L105.184 19.123C105.187 14.3183 105.215 13.4955 105.367 13.6971C105.466 13.8277 106.957 16.3764 108.68 19.3607L111.814 24.7865H113.439H115.065V16.1091V7.4316H113.55H112.036L112.002 13.1961L111.967 18.9606L108.672 13.2009L105.377 7.44101L103.762 7.43637L102.148 7.4316V16.1091ZM62.6202 10.4967C64.4121 11.0987 64.5206 13.8072 62.7821 14.5373C62.4712 14.6679 61.674 14.718 59.9092 14.718H57.4666V12.5321V10.3462H59.8194C61.225 10.3462 62.3525 10.4067 62.6202 10.4967ZM93.2404 14.6187C93.8137 16.2399 94.309 17.6409 94.3412 17.7319C94.3865 17.8602 93.9053 17.8975 92.2108 17.8975C91.0069 17.8975 90.022 17.8529 90.022 17.7982C90.022 17.5632 92.0293 11.671 92.1095 11.671C92.1582 11.671 92.6671 12.9974 93.2404 14.6187Z" fill="#433067"/>
<path d="M16.7393 12.6284H28.0743C28.6015 20.4707 23.593 27.0609 16.7393 28.1153V12.6284Z" fill="#60B9A7"/>
<path d="M11.373 12.6284H0.0379744C-0.489239 20.4707 4.51928 27.0609 11.373 28.1153V12.6284Z" fill="#60B9A7"/>
</svg>
