<svg width="304" height="65" viewBox="0 0 304 65" fill="none" xmlns="http://www.w3.org/2000/svg">
<g opacity="0.2">
<path fill-rule="evenodd" clip-rule="evenodd" d="M31.5161 0.509129C22.2008 2.00193 15.1114 5.68616 8.7483 12.3399C6.9062 14.266 4.18066 17.9964 4.18066 18.5911C4.18066 18.9352 69.0615 19.0153 69.4034 18.6716C69.7924 18.2806 66.7785 14.3069 63.8817 11.3917C55.2844 2.73941 43.1199 -1.35083 31.5161 0.509129ZM126.407 9.79354V13.9937H130.411H134.416V9.79354V5.5934H130.411H126.407V9.79354ZM196.87 17.6373C192.231 18.5277 188.723 21.058 186.99 24.7629C184.745 29.564 185.849 35.6731 189.587 39.1368C191.783 41.1711 194.659 42.5067 200.317 44.1185C207.096 46.0499 208.096 46.4636 209.292 47.8328C210.116 48.7754 210.328 49.3449 210.328 50.6053C210.328 54.4281 207.003 57.0451 202.145 57.0451C197.324 57.0451 194.227 54.5905 192.929 49.7407L192.52 48.2112L190.89 48.423C189.994 48.5395 188.125 48.7383 186.736 48.865C183.866 49.1268 183.936 49.0019 184.736 52.411C185.87 57.2467 188.875 61.3282 192.577 63.0629C195.502 64.4335 197.958 64.9008 202.145 64.8833C210.12 64.8497 214.994 62.3261 217.681 56.8418C219.094 53.957 219.449 49.5808 218.532 46.3505C216.839 40.3828 213.617 38.1809 201.704 34.8516C197.464 33.6668 195.171 32.4789 194.461 31.0998C193.172 28.5934 195.077 25.9424 198.713 25.1836C203.852 24.1111 208.183 26.2711 208.822 30.2251L209.027 31.4943H212.246C214.016 31.4943 215.974 31.3921 216.596 31.2668L217.728 31.0393L217.535 29.1657C217.015 24.0929 213.369 19.7577 208.3 18.1844C205.361 17.2719 200.09 17.0195 196.87 17.6373ZM86.7094 22.044V25.8941H92.9774H99.2454V44.9697V64.0454H103.598H107.951V44.9697V25.8941H114.393H120.835V22.044V18.1938H103.772H86.7094V22.044ZM126.058 41.1196V64.0454H130.411H134.764V41.1196V18.1938H130.411H126.058V41.1196ZM143.121 41.1196V64.0454H147.474H151.827V54.3697V44.6939L154.652 44.9309C156.206 45.0611 157.912 45.3936 158.443 45.6694C160.107 46.5346 162.157 49.2413 166.842 56.762L171.38 64.0454H176.403C179.166 64.0454 181.426 63.981 181.426 63.9026C181.426 63.5036 173.515 50.3123 172.313 48.7068C171.546 47.6823 170.077 46.1892 169.048 45.3894L167.178 43.9351L169.436 43.1997C173.574 41.8522 176.393 39.128 177.457 35.4484C178.339 32.4005 178.011 27.3239 176.778 24.919C174.782 21.0247 172.357 19.3041 167.822 18.5645C166.59 18.3636 160.528 18.198 154.352 18.1966L143.121 18.1938V41.1196ZM237.598 21.2585C234.507 29.7719 223.395 60.6093 222.842 62.2078L222.205 64.0454H226.859H231.512L233.224 58.8827L234.936 53.72H243.59H252.244L254.054 58.7952L255.863 63.8704L260.573 63.9677L265.282 64.0646L259.197 47.8671C255.851 38.9583 251.987 28.6392 250.611 24.9361L248.11 18.2026L243.409 18.2001L238.708 18.198L237.598 21.2585ZM269.874 41.1196V64.0454H273.879H277.883L277.895 49.0824C277.904 36.3885 277.977 34.2146 278.379 34.7473C278.64 35.0924 282.579 41.8259 287.133 49.7103L295.413 64.0454H299.707H304V41.1196V18.1938H299.999H295.998L295.908 33.4235L295.817 48.6533L287.111 33.4361L278.406 18.2187L274.14 18.2064L269.874 18.1938V41.1196ZM165.443 26.2917C170.177 27.8822 170.463 35.0382 165.87 36.9671C165.049 37.3122 162.943 37.4445 158.28 37.4445H151.827V31.6693V25.8941H158.043C161.757 25.8941 164.736 26.054 165.443 26.2917ZM246.341 37.182C247.856 41.4654 249.164 45.1668 249.249 45.4072C249.369 45.7461 248.098 45.8448 243.621 45.8448C240.44 45.8448 237.838 45.7268 237.838 45.5823C237.838 44.9613 243.141 29.3942 243.353 29.3942C243.482 29.3942 244.826 32.8985 246.341 37.182Z" fill="white"/>
<path d="M44.2246 19.3848H74.1717C75.5646 40.104 62.3322 57.5151 44.2246 60.3009V19.3848Z" fill="white"/>
<path d="M30.0479 19.3848H0.100727C-1.29216 40.104 11.9403 57.5151 30.0479 60.3009V19.3848Z" fill="white"/>
</g>
</svg>
