<svg width="27" height="26" viewBox="0 0 27 26" fill="none" xmlns="http://www.w3.org/2000/svg">
<path d="M9.96984 24.5454C10.5891 24.5454 11.0911 24.0434 11.0911 23.4242C11.0911 22.805 10.5891 22.303 9.96984 22.303C9.35062 22.303 8.84863 22.805 8.84863 23.4242C8.84863 24.0434 9.35062 24.5454 9.96984 24.5454Z" stroke="black" stroke-width="2" stroke-linecap="round" stroke-linejoin="round"/>
<path d="M22.3029 24.5454C22.9221 24.5454 23.4241 24.0434 23.4241 23.4242C23.4241 22.805 22.9221 22.303 22.3029 22.303C21.6836 22.303 21.1816 22.805 21.1816 23.4242C21.1816 24.0434 21.6836 24.5454 22.3029 24.5454Z" stroke="black" stroke-width="2" stroke-linecap="round" stroke-linejoin="round"/>
<path d="M1 1H5.48485L8.4897 16.013C8.59223 16.5292 8.87305 16.9929 9.28301 17.3229C9.69296 17.653 10.2059 17.8283 10.7321 17.8182H21.6303C22.1565 17.8283 22.6695 17.653 23.0794 17.3229C23.4894 16.9929 23.7702 16.5292 23.8727 16.013L25.6667 6.60606H6.60606" stroke="black" stroke-width="2" stroke-linecap="round" stroke-linejoin="round"/>
</svg>
