<svg width="25" height="25" viewBox="0 0 25 25" fill="none" xmlns="http://www.w3.org/2000/svg">
<path d="M17.4585 0.617981H8.41882C4.25906 0.617981 0.885742 4.00862 0.885742 8.18976V17.2759C0.885742 21.457 4.25906 24.8477 8.41882 24.8477H17.4585C21.6183 24.8477 24.9916 21.457 24.9916 17.2759V8.18976C24.9916 4.00862 21.6183 0.617981 17.4585 0.617981ZM22.7317 17.2759C22.7317 20.1986 20.3663 22.5761 17.4585 22.5761H8.41882C5.51105 22.5761 3.14567 20.1986 3.14567 17.2759V8.18976C3.14567 5.26705 5.51105 2.88951 8.41882 2.88951H17.4585C20.3663 2.88951 22.7317 5.26705 22.7317 8.18976V17.2759Z" fill="url(#paint0_linear_1_11750)"/>
<path d="M12.9386 6.6748C9.61046 6.6748 6.91211 9.38698 6.91211 12.7321C6.91211 16.0773 9.61046 18.7895 12.9386 18.7895C16.2667 18.7895 18.965 16.0773 18.965 12.7321C18.965 9.38698 16.2667 6.6748 12.9386 6.6748ZM12.9386 16.518C10.8625 16.518 9.17203 14.8189 9.17203 12.7321C9.17203 10.6439 10.8625 8.9463 12.9386 8.9463C15.0147 8.9463 16.7051 10.6439 16.7051 12.7321C16.7051 14.8189 15.0147 16.518 12.9386 16.518Z" fill="url(#paint1_linear_1_11750)"/>
<path d="M19.4173 7.02835C19.8608 7.02835 20.2203 6.66695 20.2203 6.22115C20.2203 5.77534 19.8608 5.41394 19.4173 5.41394C18.9738 5.41394 18.6143 5.77534 18.6143 6.22115C18.6143 6.66695 18.9738 7.02835 19.4173 7.02835Z" fill="url(#paint2_linear_1_11750)"/>
<defs>
<linearGradient id="paint0_linear_1_11750" x1="3.09241" y1="22.6298" x2="22.8858" y2="2.93724" gradientUnits="userSpaceOnUse">
<stop stop-color="#FFC107"/>
<stop offset="0.507" stop-color="#F44336"/>
<stop offset="0.99" stop-color="#9C27B0"/>
</linearGradient>
<linearGradient id="paint1_linear_1_11750" x1="8.67734" y1="17.0152" x2="17.2434" y2="8.49284" gradientUnits="userSpaceOnUse">
<stop stop-color="#FFC107"/>
<stop offset="0.507" stop-color="#F44336"/>
<stop offset="0.99" stop-color="#9C27B0"/>
</linearGradient>
<linearGradient id="paint2_linear_1_11750" x1="18.8495" y1="6.79202" x2="19.9909" y2="5.65635" gradientUnits="userSpaceOnUse">
<stop stop-color="#FFC107"/>
<stop offset="0.507" stop-color="#F44336"/>
<stop offset="0.99" stop-color="#9C27B0"/>
</linearGradient>
</defs>
</svg>
