<svg width="16" height="26" viewBox="0 0 16 26" fill="none" xmlns="http://www.w3.org/2000/svg">
<path d="M6.68333 18.1831C4.76934 17.9821 3.04287 17.5045 1.56519 16.3346C1.38141 16.1889 1.19139 16.0481 1.02512 15.886C0.377538 15.2577 0.31253 14.5364 0.825094 13.795C1.26265 13.1591 1.99774 12.9895 2.76159 13.3552C2.9091 13.4243 3.04912 13.5135 3.18539 13.6078C5.93948 15.5228 9.72371 15.5756 12.4878 13.6945C12.7628 13.4808 13.0554 13.3074 13.3942 13.2195C14.0542 13.0486 14.6693 13.2936 15.0231 13.8779C15.4282 14.5439 15.4232 15.1974 14.9244 15.7139C14.1605 16.5093 13.2404 17.0836 12.219 17.4844C11.2526 17.8639 10.1938 18.0549 9.14738 18.1806C9.3049 18.3553 9.37991 18.4407 9.47867 18.5413C10.9001 19.9864 12.329 21.4277 13.7467 22.8779C14.2293 23.373 14.3305 23.985 14.0642 24.5605C13.773 25.1888 13.1229 25.6022 12.4841 25.5583C12.0802 25.5293 11.7652 25.3258 11.4839 25.0405C10.4113 23.9473 9.31866 22.8741 8.26727 21.7607C7.96099 21.4365 7.81347 21.4981 7.54343 21.7796C6.46455 22.9043 5.36816 24.0113 4.26302 25.1134C3.76796 25.6073 3.17789 25.6965 2.60282 25.415C1.99274 25.1134 1.60269 24.4838 1.63394 23.8492C1.65395 23.4195 1.86272 23.0928 2.15401 22.7987C3.56169 21.3762 4.96436 19.9499 6.36829 18.5262C6.4608 18.4307 6.54831 18.3301 6.68333 18.1831Z" fill="#F1BD36"/>
<path d="M7.84946 13.2299C4.43403 13.2174 1.63369 10.3523 1.65244 6.88916C1.67244 3.38829 4.47529 0.568495 7.92447 0.577291C11.3799 0.586087 14.154 3.4486 14.1377 6.98591C14.119 10.4415 11.2999 13.2412 7.84946 13.2299ZM10.9536 6.8967C10.9559 6.49202 10.8786 6.09087 10.7262 5.71632C10.5737 5.34176 10.3492 5.00118 10.0653 4.71416C9.78153 4.42713 9.44408 4.19931 9.07238 4.0438C8.70068 3.88829 8.30207 3.80815 7.89946 3.80799C7.49307 3.8076 7.09066 3.8886 6.71576 4.04627C6.34085 4.20394 6.00096 4.43511 5.71593 4.72628C5.4309 5.01746 5.20645 5.3628 5.05568 5.74215C4.90492 6.12149 4.83086 6.52722 4.83783 6.93565C4.83832 7.34049 4.91846 7.74123 5.07365 8.11481C5.22884 8.48839 5.45601 8.82743 5.74208 9.11241C6.02815 9.39738 6.36748 9.62267 6.74052 9.7753C7.11357 9.92793 7.51296 10.0049 7.91572 10.0017C8.31847 10.0003 8.71694 9.91863 9.08812 9.76151C9.45931 9.60439 9.79584 9.37491 10.0783 9.08633C10.3608 8.79774 10.5835 8.45577 10.7338 8.08016C10.884 7.70455 10.9587 7.30275 10.9536 6.89795V6.8967Z" fill="#F1BD36"/>
</svg>
