<svg width="141" height="54" viewBox="0 0 141 54" fill="none" xmlns="http://www.w3.org/2000/svg">
<path fill-rule="evenodd" clip-rule="evenodd" d="M88.8898 1.30889C87.8444 1.04152 81.3595 0.601491 75.8992 0.427762C71.004 0.271893 67.0671 0.30617 61.8005 0.550345C38.7304 1.62006 18.7715 6.86494 8.56671 14.5394C-1.61076 22.1933 -1.61076 31.7262 8.56659 39.3396C17.9317 46.3451 35.5033 51.4018 55.9517 52.9757C61.6155 53.4117 63.4281 53.4735 70.543 53.4735C77.6604 53.4735 79.5381 53.4094 85.0726 52.9764C95.2229 52.1823 104.748 50.5509 113.024 48.1896C124.584 44.8909 133.227 40.0856 137.292 34.6986C139.105 32.295 140.175 29.4524 140.175 27.0373C140.175 24.5372 139.136 21.5991 137.438 19.2944C135.994 17.3353 132.181 13.9614 130.509 13.1635C129.325 12.5987 128.83 12.5804 115.856 12.6216C104.293 12.6582 103.634 12.672 103.05 12.8906C102.148 13.2283 101.47 13.7401 101.042 14.407C100.834 14.7309 99.3261 18.5081 97.6915 22.8004C96.0567 27.0928 94.676 30.6819 94.6231 30.7762C94.5523 30.9025 94.494 30.8546 94.4016 30.5944C93.6705 28.5342 88.7321 15.4545 88.5023 14.9693C87.7808 13.4466 86.6095 12.2924 85.4492 11.961C83.3816 11.3707 81.5838 12.4276 80.2863 14.9961C79.7902 15.9783 72.5704 35.5105 72.2882 36.6341C71.8227 38.4869 71.9247 39.4978 72.6403 40.125C73.6035 40.9694 75.3051 40.9592 76.4302 40.1023C77.0071 39.6631 77.5096 38.6255 78.1248 36.6033L78.6578 34.8514H90.1677L90.4901 35.9271C91.4551 39.1476 91.5989 39.4741 92.3388 40.1227C93.035 40.733 94.2985 40.9305 95.4015 40.6014C95.9614 40.4345 96.8093 39.6655 97.152 39.014C97.2716 38.7869 99.2669 33.8986 101.586 28.151L105.803 17.7009L110.623 17.6342L110.623 28.1792C110.624 35.4935 110.666 38.874 110.76 39.213C110.943 39.8712 111.663 40.5687 112.348 40.7531C113.117 40.9598 114.395 40.8643 114.994 40.5551C115.544 40.2711 115.976 39.7133 116.162 39.0459C116.24 38.764 116.286 34.7622 116.286 28.1203L116.287 17.6394H128.466L129.676 18.5493C131.034 19.5708 132.692 21.1627 133.385 22.1111C134.612 23.7903 135.159 25.2676 135.167 26.9216C135.173 28.179 134.956 29.0532 134.329 30.2951C130.387 38.1 112.746 45.0174 90.4289 47.509C62.9941 50.572 33.535 47.0481 16.8856 38.7115C9.98261 35.2552 6.24017 31.4238 5.89338 27.4581C5.74571 25.7694 6.44351 23.6815 7.71764 22.0003C9.55646 19.5735 12.942 17.0929 17.3495 14.9428C27.2234 10.1259 41.5135 6.87245 57.8603 5.71947C65.9528 5.14878 76.1341 5.18075 84.1491 5.80222C85.6052 5.91508 87.299 6.01061 87.9133 6.01443C88.8978 6.02043 89.0813 5.98627 89.4636 5.72502C90.7949 4.81498 90.9903 3.10462 89.8931 1.9653C89.5653 1.62498 89.2059 1.38978 88.8898 1.30889ZM81.9306 24.6272C82.8203 21.8996 83.6603 19.3222 83.7972 18.8996C84.0342 18.1679 84.0651 18.1312 84.4418 18.1312H84.8376L88.4193 29.6263L84.4185 29.6588C82.218 29.6766 80.3939 29.6676 80.3651 29.6389C80.3363 29.6101 81.0408 27.3549 81.9306 24.6272Z" fill="white"/>
<path fill-rule="evenodd" clip-rule="evenodd" d="M41.3114 18.0188C40.184 15.2523 37.5295 13.2557 34.2803 12.73C33.8172 12.6552 31.4236 12.6002 28.5995 12.5997L23.7189 12.5987L23.0604 12.9422C22.581 13.1923 22.3008 13.4489 22.0304 13.8853L21.6592 14.4849L21.6254 26.2839C21.6033 33.9904 21.6355 38.3202 21.7184 38.7671C21.9941 40.2567 22.7379 40.8141 24.4499 40.8141C25.437 40.8141 25.556 40.7864 26.0439 40.4442C26.3628 40.2203 26.6954 39.8333 26.8856 39.4643C27.1999 38.8549 27.2002 38.8513 27.239 35.0792L27.2776 31.304L35.2038 31.2183L36.2474 30.8579C38.6846 30.0163 40.6326 28.0862 41.4752 25.6785C42.2884 23.3545 42.2221 20.253 41.3114 18.0188ZM27.2617 26.3885V17.4898L30.0014 17.5468C32.9602 17.6084 33.4446 17.6974 34.465 18.3673C35.0402 18.745 35.6915 19.659 35.9035 20.3863C35.9855 20.6673 36.0531 21.3953 36.0536 22.0039C36.0544 22.9358 36.0042 23.2194 35.7357 23.8013C35.2923 24.762 34.6764 25.395 33.7066 25.8868L32.8781 26.3069L27.2617 26.3885Z" fill="white"/>
<path fill-rule="evenodd" clip-rule="evenodd" d="M67.2166 19.4312C66.6526 16.2026 64.5835 13.9585 61.2431 12.9523C60.3579 12.6858 60.1195 12.674 54.9666 12.6421C50.9909 12.6176 49.5068 12.6477 49.2089 12.7587C48.6092 12.9821 47.9784 13.5327 47.7016 14.0747C47.4605 14.5464 47.4555 14.8008 47.4583 26.763C47.4608 38.368 47.4721 38.9942 47.6882 39.4617C48.1272 40.4112 48.9403 40.8756 50.1645 40.8756C51.375 40.8756 52.1407 40.4435 52.6698 39.4617C52.928 38.9829 52.9359 38.8282 52.9707 33.5835L53.0064 28.1969L57.7728 34.1367C63.0938 40.7675 63.201 40.8756 64.4573 40.8756C65.4016 40.8756 66.4766 40.4712 67.0527 39.8994C67.8564 39.1014 67.9515 37.8977 67.2989 36.7779C67.1192 36.4696 65.4319 34.5814 63.5493 32.5821C61.6667 30.5828 60.1983 28.9279 60.2862 28.9044C60.3368 28.891 60.5306 28.8508 60.7908 28.7992C60.9839 28.761 61.2137 28.7164 61.4487 28.6719C62.9476 28.3879 63.9576 27.8414 65.1367 26.6767C67.0887 24.7482 67.7455 22.4601 67.2166 19.4312ZM52.9965 25.1587V17.6394H55.4425C57.9477 17.6394 58.8622 17.7359 59.5803 18.0761C60.2751 18.4053 60.9705 19.091 61.3079 19.7797C62.2563 21.7151 61.4922 23.8004 59.4979 24.7198C58.7223 25.0774 58.7218 25.0774 55.8594 25.1181L52.9965 25.1587Z" fill="white"/>
</svg>
