<svg width="227" height="87" viewBox="0 0 227 87" fill="none" xmlns="http://www.w3.org/2000/svg">
<path fill-rule="evenodd" clip-rule="evenodd" d="M143.439 2.14002C141.739 1.70536 131.197 0.990023 122.32 0.707597C114.362 0.454205 107.962 0.509929 99.4006 0.906876C61.8963 2.64588 29.4496 11.1723 12.8601 23.6484C-3.6851 36.0912 -3.6851 51.5885 12.8599 63.9653C28.0844 75.3539 56.6501 83.5745 89.8924 86.1332C99.0998 86.8419 102.046 86.9425 113.613 86.9425C125.183 86.9425 128.236 86.8381 137.233 86.1342C153.734 84.8433 169.22 82.1913 182.673 78.3525C201.465 72.9899 215.517 65.178 222.124 56.4206C225.072 52.5132 226.811 47.892 226.811 43.9658C226.811 39.9016 225.123 35.1252 222.361 31.3786C220.014 28.1936 213.815 22.7089 211.097 21.4118C209.173 20.4936 208.369 20.4638 187.277 20.5308C168.479 20.5903 167.408 20.6127 166.459 20.9681C164.992 21.5171 163.89 22.3491 163.194 23.4332C162.856 23.9598 160.405 30.1002 157.747 37.0781C155.09 44.0562 152.845 49.8908 152.759 50.0441C152.644 50.2493 152.549 50.1716 152.399 49.7485C151.211 46.3994 143.182 25.136 142.809 24.3474C141.636 21.8718 139.732 19.9955 137.846 19.4569C134.484 18.4971 131.562 20.2153 129.452 24.3909C128.646 25.9876 116.909 57.7405 116.45 59.567C115.693 62.5792 115.859 64.2225 117.023 65.2422C118.588 66.6148 121.355 66.5983 123.184 65.2052C124.121 64.4913 124.938 62.8044 125.938 59.5171L126.805 56.669H145.516L146.04 58.4178C147.609 63.6533 147.843 64.1839 149.046 65.2384C150.178 66.2305 152.231 66.5517 154.025 66.0167C154.935 65.7453 156.313 64.4951 156.87 63.436C157.065 63.0669 160.309 55.1201 164.079 45.7764L170.934 28.7879L178.769 28.6796L178.77 45.8222C178.771 57.7129 178.839 63.2084 178.993 63.7596C179.29 64.8295 180.46 65.9635 181.574 66.2633C182.825 66.5993 184.901 66.444 185.875 65.9413C186.77 65.4796 187.472 64.5728 187.774 63.488C187.901 63.0297 187.976 56.5241 187.976 45.7264L187.977 28.688H207.777L209.744 30.1672C211.952 31.8279 214.647 34.4157 215.773 35.9575C217.768 38.6874 218.657 41.089 218.671 43.7778C218.681 45.822 218.328 47.243 217.308 49.262C210.899 61.9502 182.221 73.1956 145.941 77.2461C101.341 82.2254 53.4503 76.4968 26.3839 62.9443C15.1619 57.3256 9.0779 51.0968 8.51413 44.65C8.27408 41.9046 9.40846 38.5105 11.4798 35.7774C14.4691 31.8323 19.9729 27.7996 27.1381 24.3042C43.1897 16.4735 66.4207 11.1845 92.9951 9.31015C106.151 8.38242 122.702 8.43438 135.732 9.44468C138.099 9.62815 140.853 9.78347 141.851 9.78966C143.452 9.79942 143.75 9.74389 144.372 9.31918C146.536 7.83977 146.854 5.05928 145.07 3.20712C144.537 2.65388 143.953 2.27153 143.439 2.14002ZM132.125 40.0479C133.572 35.6137 134.937 31.4238 135.16 30.7366C135.545 29.5472 135.595 29.4875 136.208 29.4875H136.851L142.674 48.1748L136.17 48.2275C132.593 48.2565 129.627 48.2419 129.58 48.1952C129.534 48.1484 130.679 44.4823 132.125 40.0479Z" fill="white"/>
<path fill-rule="evenodd" clip-rule="evenodd" d="M66.0921 29.3048C64.2593 24.8074 59.944 21.5616 54.6619 20.707C53.9091 20.5853 50.0178 20.496 45.4267 20.4952L37.4925 20.4936L36.4221 21.052C35.6427 21.4585 35.1872 21.8756 34.7476 22.5852L34.1441 23.5599L34.0892 42.7411C34.0532 55.2694 34.1056 62.3082 34.2403 63.0347C34.6885 65.4563 35.8978 66.3624 38.6809 66.3624C40.2856 66.3624 40.4791 66.3174 41.2722 65.761C41.7906 65.3971 42.3313 64.7679 42.6405 64.1681C43.1515 63.1774 43.1519 63.1716 43.2151 57.0394L43.2778 50.9021L56.1632 50.7628L57.8598 50.1768C61.8218 48.8088 64.9886 45.6711 66.3583 41.7569C67.6804 37.9789 67.5727 32.9369 66.0921 29.3048ZM43.252 42.9112V28.4448L47.7059 28.5375C52.5159 28.6377 53.3033 28.7823 54.9621 29.8714C55.8971 30.4854 56.9561 31.9712 57.3007 33.1536C57.434 33.6105 57.5439 34.7939 57.5447 35.7832C57.546 37.2982 57.4643 37.7592 57.0278 38.7052C56.3071 40.267 55.3058 41.2961 53.7292 42.0955L52.3824 42.7784L43.252 42.9112Z" fill="white"/>
<path fill-rule="evenodd" clip-rule="evenodd" d="M108.205 31.6008C107.288 26.3522 103.925 22.7041 98.4944 21.0684C97.0554 20.6351 96.6678 20.6159 88.291 20.5641C81.8278 20.5242 79.4151 20.5731 78.9307 20.7536C77.9559 21.1167 76.9304 22.0119 76.4804 22.8929C76.0884 23.6598 76.0804 24.0733 76.0849 43.5199C76.089 62.3859 76.1074 63.4038 76.4587 64.1639C77.1724 65.7075 78.4942 66.4624 80.4842 66.4624C82.4521 66.4624 83.697 65.7599 84.5571 64.1639C84.9768 63.3854 84.9897 63.134 85.0462 54.6078L85.1043 45.851L92.853 55.5072C101.503 66.2867 101.677 66.4624 103.72 66.4624C105.255 66.4624 107.002 65.805 107.939 64.8755C109.245 63.5781 109.4 61.6213 108.339 59.8009C108.047 59.2996 105.304 56.2301 102.243 52.9799C99.183 49.7297 96.796 47.0394 96.9389 47.0012C97.021 46.9794 97.3361 46.9141 97.7591 46.8302C98.0731 46.768 98.4467 46.6956 98.8286 46.6232C101.265 46.1615 102.907 45.2731 104.824 43.3796C107.998 40.2446 109.065 36.5249 108.205 31.6008ZM85.0882 40.9119V28.688H89.0645C93.1372 28.688 94.6238 28.8449 95.7912 29.3979C96.9207 29.9332 98.0512 31.0478 98.5997 32.1674C100.141 35.3137 98.8994 38.7038 95.6573 40.1984C94.3965 40.7798 94.3957 40.7798 89.7422 40.846L85.0882 40.9119Z" fill="white"/>
</svg>
