<svg width="124" height="48" viewBox="0 0 124 48" fill="none" xmlns="http://www.w3.org/2000/svg">
<path fill-rule="evenodd" clip-rule="evenodd" d="M78.3926 1.41481C77.4702 1.17889 71.7482 0.790637 66.9303 0.637346C62.611 0.499814 59.1373 0.530059 54.4903 0.745508C34.1343 1.68938 16.5235 6.31721 7.51928 13.0888C-1.46084 19.8423 -1.46084 28.2536 7.51917 34.9713C15.7825 41.1526 31.2869 45.6145 49.3296 47.0032C54.327 47.3879 55.9264 47.4424 62.2042 47.4424C68.4843 47.4424 70.1411 47.3858 75.0245 47.0038C83.9806 46.3031 92.3855 44.8637 99.6873 42.7801C109.887 39.8695 117.514 35.6295 121.1 30.8763C122.7 28.7555 123.644 26.2473 123.644 24.1163C123.644 21.9104 122.728 19.318 121.229 17.2844C119.955 15.5557 116.59 12.5788 115.115 11.8748C114.071 11.3764 113.634 11.3603 102.186 11.3966C91.9835 11.4289 91.4023 11.4411 90.8869 11.634C90.0907 11.932 89.4928 12.3836 89.1151 12.972C88.9315 13.2578 87.6011 16.5906 86.1588 20.3779C84.7163 24.1654 83.4981 27.3322 83.4514 27.4154C83.3889 27.5268 83.3375 27.4846 83.256 27.2549C82.6109 25.4372 78.2535 13.8962 78.0507 13.4681C77.4141 12.1245 76.3806 11.1061 75.3568 10.8138C73.5324 10.2928 71.9461 11.2254 70.8013 13.4918C70.3635 14.3584 63.9932 31.5927 63.7441 32.5841C63.3334 34.219 63.4234 35.1109 64.0548 35.6643C64.9047 36.4094 66.4061 36.4004 67.3989 35.6443C67.9078 35.2568 68.3512 34.3412 68.894 32.557L69.3644 31.0111H79.5202L79.8046 31.9603C80.6561 34.8019 80.783 35.09 81.4358 35.6623C82.0501 36.2008 83.1649 36.3751 84.1382 36.0847C84.6322 35.9374 85.3804 35.2588 85.6828 34.684C85.7883 34.4837 87.5489 30.1704 89.5953 25.099L93.3161 15.8783L97.5687 15.8195L97.5693 25.1239C97.5696 31.5777 97.6066 34.5605 97.6899 34.8597C97.8512 35.4403 98.4863 36.0558 99.0912 36.2186C99.7697 36.4009 100.897 36.3166 101.426 36.0438C101.911 35.7932 102.292 35.301 102.456 34.7122C102.525 34.4635 102.565 30.9325 102.566 25.0719L102.566 15.8241H113.313L114.381 16.6269C115.579 17.5283 117.042 18.9329 117.653 19.7697C118.736 21.2514 119.218 22.5549 119.226 24.0142C119.231 25.1238 119.039 25.895 118.486 26.9909C115.008 33.8776 99.442 39.9812 79.7506 42.1796C55.5434 44.8822 29.5501 41.7729 14.8595 34.4172C8.76861 31.3675 5.46645 27.9868 5.16046 24.4876C5.03017 22.9976 5.64587 21.1554 6.7701 19.6719C8.39259 17.5307 11.3798 15.3419 15.2688 13.4447C23.9811 9.1945 36.59 6.32383 51.0136 5.3065C58.154 4.80295 67.1375 4.83116 74.2097 5.37951C75.4944 5.47909 76.989 5.56339 77.531 5.56676C78.3997 5.57205 78.5616 5.54191 78.8989 5.3114C80.0736 4.50842 80.246 2.99928 79.2779 1.994C78.9886 1.69372 78.6715 1.48619 78.3926 1.41481ZM72.2521 21.9898C73.0371 19.5831 73.7784 17.3089 73.8991 16.936C74.1082 16.2904 74.1355 16.258 74.4679 16.258H74.8171L77.9775 26.4008L74.4473 26.4294C72.5057 26.4451 70.8963 26.4372 70.8708 26.4119C70.8454 26.3865 71.467 24.3966 72.2521 21.9898Z" fill="white"/>
<path fill-rule="evenodd" clip-rule="evenodd" d="M36.4117 16.1588C35.4169 13.7179 33.0747 11.9562 30.2078 11.4923C29.7992 11.4262 27.6871 11.3777 25.1953 11.3773L20.8889 11.3764L20.3079 11.6795C19.8848 11.9002 19.6376 12.1266 19.399 12.5117L19.0715 13.0407L19.0417 23.4516C19.0221 30.2515 19.0506 34.0719 19.1237 34.4662C19.367 35.7805 20.0233 36.2724 21.5338 36.2724C22.4048 36.2724 22.5099 36.248 22.9403 35.946C23.2217 35.7484 23.5152 35.4069 23.683 35.0814C23.9604 34.5436 23.9606 34.5405 23.9948 31.2122L24.0289 27.8811L31.0226 27.8055L31.9435 27.4874C34.0939 26.7449 35.8127 25.0419 36.5562 22.9174C37.2737 20.8668 37.2153 18.1302 36.4117 16.1588ZM24.0149 23.5439V15.6921L26.4323 15.7424C29.043 15.7968 29.4704 15.8753 30.3707 16.4664C30.8782 16.7996 31.453 17.6061 31.64 18.2478C31.7124 18.4958 31.772 19.1381 31.7724 19.6751C31.7732 20.4974 31.7288 20.7476 31.4919 21.2611C31.1007 22.1087 30.5573 22.6673 29.7016 23.1012L28.9705 23.4719L24.0149 23.5439Z" fill="white"/>
<path fill-rule="evenodd" clip-rule="evenodd" d="M59.2691 17.4051C58.7715 14.5563 56.9459 12.5762 53.9984 11.6884C53.2174 11.4532 53.007 11.4428 48.4604 11.4147C44.9524 11.3931 43.6429 11.4196 43.38 11.5176C42.8509 11.7147 42.2943 12.2006 42.05 12.6787C41.8373 13.095 41.833 13.3194 41.8354 23.8743C41.8376 34.1141 41.8476 34.6666 42.0383 35.0791C42.4256 35.9169 43.1431 36.3266 44.2232 36.3266C45.2913 36.3266 45.9669 35.9453 46.4338 35.0791C46.6616 34.6566 46.6686 34.5201 46.6992 29.8924L46.7308 25.1395L50.9365 30.3806C55.6314 36.2313 55.726 36.3266 56.8345 36.3266C57.6677 36.3266 58.6162 35.9698 59.1245 35.4653C59.8337 34.7612 59.9176 33.699 59.3418 32.711C59.1832 32.439 57.6944 30.7729 56.0333 29.0088C54.3722 27.2448 53.0766 25.7845 53.1542 25.7638C53.1987 25.7519 53.3698 25.7165 53.5994 25.671C53.7698 25.6372 53.9725 25.5979 54.1798 25.5587C55.5024 25.3081 56.3936 24.8259 57.4339 23.7982C59.1564 22.0966 59.7359 20.0776 59.2691 17.4051ZM46.7221 22.4588V15.8241H48.8802C51.0907 15.8241 51.8976 15.9092 52.5313 16.2094C53.1443 16.4999 53.7579 17.1049 54.0556 17.7126C54.8924 19.4203 54.2182 21.2603 52.4586 22.0715C51.7742 22.3871 51.7738 22.3871 49.2481 22.423L46.7221 22.4588Z" fill="white"/>
</svg>
