<svg width="63" height="24" viewBox="0 0 63 24" fill="none" xmlns="http://www.w3.org/2000/svg">
<path fill-rule="evenodd" clip-rule="evenodd" d="M39.796 0.440633C39.3231 0.319877 36.389 0.121146 33.9184 0.0426841C31.7036 -0.027712 29.9223 -0.0122311 27.5394 0.0980467C17.1013 0.581168 8.0708 2.94994 3.45362 6.41598C-1.1512 9.87277 -1.1512 14.1781 3.45357 17.6166C7.69082 20.7805 15.6412 23.0643 24.8931 23.7752C27.4557 23.9721 28.2758 24 31.495 24C34.7153 24 35.5649 23.971 38.069 23.7755C42.6615 23.4168 46.9713 22.6801 50.7155 21.6136C55.9458 20.1238 59.8566 17.9535 61.6956 15.5206C62.516 14.4351 63 13.1512 63 12.0605C63 10.9314 62.5301 9.60441 61.7616 8.56353C61.1083 7.67869 59.3831 6.15496 58.6266 5.7946C58.0911 5.53952 57.8672 5.53125 51.9969 5.54985C46.7652 5.56639 46.4671 5.57261 46.2029 5.67134C45.7946 5.82387 45.488 6.05501 45.2943 6.35619C45.2002 6.5025 44.518 8.20839 43.7784 10.147C43.0387 12.0856 42.414 13.7065 42.3901 13.7491C42.3581 13.8061 42.3317 13.7845 42.2899 13.667C41.9591 12.7365 39.7247 6.82926 39.6207 6.61016C39.2943 5.92242 38.7643 5.40116 38.2394 5.25151C37.3038 4.98488 36.4904 5.46222 35.9034 6.62226C35.6789 7.06586 32.4123 15.8873 32.2846 16.3947C32.074 17.2315 32.1201 17.6881 32.4439 17.9713C32.8797 18.3527 33.6496 18.3481 34.1587 17.9611C34.4197 17.7627 34.647 17.2941 34.9254 16.3808L35.1666 15.5896H40.3742L40.5201 16.0754C40.9567 17.5299 41.0218 17.6773 41.3566 17.9703C41.6716 18.2459 42.2432 18.3351 42.7423 18.1865C42.9956 18.1111 43.3793 17.7638 43.5343 17.4696C43.5884 17.367 44.4912 15.1593 45.5405 12.5635L47.4485 7.84382L49.6292 7.81372L49.6295 12.5762C49.6297 15.8796 49.6486 17.4063 49.6913 17.5595C49.774 17.8567 50.0997 18.1717 50.4099 18.255C50.7578 18.3484 51.3358 18.3052 51.6069 18.1656C51.856 18.0373 52.0513 17.7854 52.1353 17.484C52.1708 17.3567 52.1914 15.5493 52.1916 12.5496L52.1919 7.81606H57.7026L58.25 8.22699C58.8645 8.68836 59.6145 9.4073 59.928 9.83562C60.4831 10.594 60.7307 11.2612 60.7344 12.0082C60.7372 12.5761 60.6389 12.9709 60.3551 13.5318C58.5715 17.0568 50.5898 20.1809 40.4924 21.3062C28.0795 22.6895 14.7506 21.098 7.21755 17.333C4.09426 15.772 2.40097 14.0416 2.24407 12.2505C2.17726 11.4878 2.49298 10.5449 3.06946 9.78559C3.90144 8.68958 5.43324 7.56924 7.42744 6.59816C11.8949 4.42269 18.3605 2.95333 25.7566 2.4326C29.4181 2.17486 34.0247 2.1893 37.6511 2.46998C38.3099 2.52095 39.0763 2.56409 39.3542 2.56582C39.7997 2.56853 39.8827 2.5531 40.0556 2.43511C40.658 2.02411 40.7464 1.25165 40.25 0.737089C40.1017 0.583391 39.9391 0.477166 39.796 0.440633ZM36.6473 10.972C37.0499 9.74012 37.43 8.57609 37.4919 8.38519C37.5991 8.05476 37.6131 8.03816 37.7835 8.03816H37.9626L39.5832 13.2298L37.773 13.2444C36.7774 13.2525 35.9521 13.2484 35.939 13.2354C35.926 13.2224 36.2447 12.2039 36.6473 10.972Z" fill="#C92032"/>
<path fill-rule="evenodd" clip-rule="evenodd" d="M18.2691 7.9874C17.7589 6.73798 16.5579 5.83625 15.0878 5.59881C14.8783 5.56501 13.7953 5.54019 12.5175 5.53997L10.3093 5.53952L10.0114 5.69466C9.79444 5.8076 9.66767 5.92348 9.54531 6.1206L9.37736 6.39139L9.36207 11.7202C9.35206 15.2008 9.36664 17.1562 9.40413 17.3581C9.52888 18.0308 9.86544 18.2826 10.64 18.2826C11.0866 18.2826 11.1405 18.2701 11.3612 18.1155C11.5055 18.0144 11.656 17.8396 11.7421 17.673C11.8843 17.3977 11.8844 17.3961 11.902 15.6925L11.9194 13.9875L15.5057 13.9488L15.9779 13.786C17.0806 13.4059 17.9619 12.5342 18.3432 11.4468C18.7111 10.3972 18.6811 8.99647 18.2691 7.9874ZM11.9122 11.7675V7.74848L13.1518 7.77425C14.4906 7.80207 14.7097 7.84226 15.1714 8.14482C15.4316 8.31539 15.7263 8.72817 15.8222 9.05666C15.8594 9.18358 15.8899 9.51236 15.8901 9.7872C15.8905 10.2081 15.8678 10.3362 15.7463 10.599C15.5457 11.0329 15.267 11.3188 14.8283 11.5409L14.4534 11.7306L11.9122 11.7675Z" fill="#C92032"/>
<path fill-rule="evenodd" clip-rule="evenodd" d="M29.9899 8.62528C29.7348 7.16713 28.7986 6.15363 27.2872 5.69921C26.8867 5.57883 26.7788 5.57351 24.4474 5.55912C22.6486 5.54802 21.9771 5.56162 21.8423 5.61176C21.571 5.71264 21.2855 5.96134 21.1603 6.2061C21.0512 6.41915 21.049 6.53403 21.0502 11.9366C21.0514 17.1778 21.0565 17.4606 21.1543 17.6718C21.3529 18.1006 21.7208 18.3103 22.2746 18.3103C22.8224 18.3103 23.1688 18.1152 23.4082 17.6718C23.525 17.4555 23.5286 17.3857 23.5443 15.017L23.5605 12.5842L25.7171 15.2668C28.1246 18.2615 28.1731 18.3103 28.7415 18.3103C29.1687 18.3103 29.6551 18.1277 29.9158 17.8695C30.2794 17.509 30.3225 16.9654 30.0272 16.4597C29.9459 16.3204 29.1824 15.4677 28.3306 14.5647C27.4789 13.6618 26.8145 12.9143 26.8543 12.9037C26.8771 12.8977 26.9648 12.8795 27.0826 12.8562C27.1699 12.839 27.2739 12.8188 27.3802 12.7987C28.0584 12.6705 28.5154 12.4236 29.0489 11.8976C29.9321 11.0266 30.2293 9.99325 29.9899 8.62528ZM23.556 11.212V7.81606H24.6627C25.7962 7.81606 26.2099 7.85964 26.5349 8.01328C26.8492 8.16198 27.1639 8.47164 27.3165 8.78269C27.7456 9.65677 27.3999 10.5986 26.4976 11.0138C26.1467 11.1753 26.1465 11.1753 24.8513 11.1937L23.556 11.212Z" fill="#C92032"/>
</svg>
